<mxfile host="app.diagrams.net" modified="2023-09-27T23:33:10.235Z" agent="Mozilla/5.0 (Windows NT 10.0; Win64; x64) AppleWebKit/537.36 (KHTML, like Gecko) Chrome/117.0.0.0 Safari/537.36" etag="GqRHGvXeJd4du2eHssi6" version="21.8.2" type="google">
  <diagram name="Page-1" id="2YBvvXClWsGukQMizWep">
    <mxGraphModel grid="1" page="1" gridSize="10" guides="1" tooltips="1" connect="1" arrows="1" fold="1" pageScale="1" pageWidth="850" pageHeight="1100" math="0" shadow="0">
      <root>
        <mxCell id="0" />
        <mxCell id="1" parent="0" />
        <mxCell id="aM9ryv3xv72pqoxQDRHE-1" value="&lt;i&gt;Mc Chombo 1&amp;nbsp;&lt;/i&gt;:&amp;nbsp;&lt;br&gt;&lt;b&gt;Combo&lt;/b&gt;" style="shape=umlLifeline;perimeter=lifelinePerimeter;whiteSpace=wrap;html=1;container=0;dropTarget=0;collapsible=0;recursiveResize=0;outlineConnect=0;portConstraint=eastwest;newEdgeStyle={&quot;edgeStyle&quot;:&quot;elbowEdgeStyle&quot;,&quot;elbow&quot;:&quot;vertical&quot;,&quot;curved&quot;:0,&quot;rounded&quot;:0};" vertex="1" parent="1">
          <mxGeometry x="109" y="450" width="100" height="390" as="geometry" />
        </mxCell>
        <mxCell id="aM9ryv3xv72pqoxQDRHE-2" value="" style="html=1;points=[];perimeter=orthogonalPerimeter;outlineConnect=0;targetShapes=umlLifeline;portConstraint=eastwest;newEdgeStyle={&quot;edgeStyle&quot;:&quot;elbowEdgeStyle&quot;,&quot;elbow&quot;:&quot;vertical&quot;,&quot;curved&quot;:0,&quot;rounded&quot;:0};" vertex="1" parent="aM9ryv3xv72pqoxQDRHE-1">
          <mxGeometry x="45" y="70" width="10" height="210" as="geometry" />
        </mxCell>
        <mxCell id="aM9ryv3xv72pqoxQDRHE-3" value="" style="html=1;verticalAlign=bottom;startArrow=oval;endArrow=block;startSize=8;edgeStyle=elbowEdgeStyle;elbow=vertical;curved=0;rounded=0;" edge="1" parent="aM9ryv3xv72pqoxQDRHE-1" target="aM9ryv3xv72pqoxQDRHE-2">
          <mxGeometry relative="1" as="geometry">
            <mxPoint x="-29" y="70" as="sourcePoint" />
          </mxGeometry>
        </mxCell>
        <mxCell id="9dg1Qpggz0v6w3t59ocL-8" value="+getPrecio()" style="edgeLabel;html=1;align=center;verticalAlign=middle;resizable=0;points=[];" connectable="0" vertex="1" parent="aM9ryv3xv72pqoxQDRHE-3">
          <mxGeometry x="-0.0667" y="7" relative="1" as="geometry">
            <mxPoint as="offset" />
          </mxGeometry>
        </mxCell>
        <mxCell id="9dg1Qpggz0v6w3t59ocL-19" value="" style="html=1;points=[[0,0,0,0,5],[0,1,0,0,-5],[1,0,0,0,5],[1,1,0,0,-5]];perimeter=orthogonalPerimeter;outlineConnect=0;targetShapes=umlLifeline;portConstraint=eastwest;newEdgeStyle={&quot;curved&quot;:0,&quot;rounded&quot;:0};" vertex="1" parent="aM9ryv3xv72pqoxQDRHE-1">
          <mxGeometry x="45" y="320" width="10" height="40" as="geometry" />
        </mxCell>
        <mxCell id="9dg1Qpggz0v6w3t59ocL-20" value="4-&amp;nbsp;&lt;br&gt;&lt;div style=&quot;&quot;&gt;-aplicarDescuento()&lt;/div&gt;" style="html=1;align=left;spacingLeft=2;endArrow=block;rounded=0;edgeStyle=orthogonalEdgeStyle;curved=0;rounded=0;exitX=0.5;exitY=0.698;exitDx=0;exitDy=0;exitPerimeter=0;" edge="1" parent="aM9ryv3xv72pqoxQDRHE-1" source="aM9ryv3xv72pqoxQDRHE-1" target="9dg1Qpggz0v6w3t59ocL-19">
          <mxGeometry relative="1" as="geometry">
            <mxPoint x="60" y="300" as="sourcePoint" />
            <Array as="points">
              <mxPoint x="90" y="300" />
              <mxPoint x="90" y="330" />
            </Array>
          </mxGeometry>
        </mxCell>
        <mxCell id="aM9ryv3xv72pqoxQDRHE-5" value="&lt;i&gt;Hamburguesa&amp;nbsp;&lt;/i&gt;: &lt;b&gt;Producto&lt;/b&gt;" style="shape=umlLifeline;perimeter=lifelinePerimeter;whiteSpace=wrap;html=1;container=0;dropTarget=0;collapsible=0;recursiveResize=0;outlineConnect=0;portConstraint=eastwest;newEdgeStyle={&quot;edgeStyle&quot;:&quot;elbowEdgeStyle&quot;,&quot;elbow&quot;:&quot;vertical&quot;,&quot;curved&quot;:0,&quot;rounded&quot;:0};" vertex="1" parent="1">
          <mxGeometry x="289" y="450" width="100" height="390" as="geometry" />
        </mxCell>
        <mxCell id="aM9ryv3xv72pqoxQDRHE-6" value="" style="html=1;points=[];perimeter=orthogonalPerimeter;outlineConnect=0;targetShapes=umlLifeline;portConstraint=eastwest;newEdgeStyle={&quot;edgeStyle&quot;:&quot;elbowEdgeStyle&quot;,&quot;elbow&quot;:&quot;vertical&quot;,&quot;curved&quot;:0,&quot;rounded&quot;:0};" vertex="1" parent="aM9ryv3xv72pqoxQDRHE-5">
          <mxGeometry x="45" y="80" width="10" height="50" as="geometry" />
        </mxCell>
        <mxCell id="aM9ryv3xv72pqoxQDRHE-7" value="1-&lt;br&gt;+getPrecio()" style="html=1;verticalAlign=bottom;endArrow=block;edgeStyle=elbowEdgeStyle;elbow=vertical;curved=0;rounded=0;" edge="1" parent="1" source="aM9ryv3xv72pqoxQDRHE-2" target="aM9ryv3xv72pqoxQDRHE-6">
          <mxGeometry relative="1" as="geometry">
            <mxPoint x="264" y="540" as="sourcePoint" />
            <Array as="points">
              <mxPoint x="250" y="540" />
            </Array>
            <mxPoint as="offset" />
          </mxGeometry>
        </mxCell>
        <mxCell id="aM9ryv3xv72pqoxQDRHE-8" value="&lt;i&gt;precioHamburguesa&lt;/i&gt;" style="html=1;verticalAlign=bottom;endArrow=open;dashed=1;endSize=8;edgeStyle=elbowEdgeStyle;elbow=vertical;curved=0;rounded=0;" edge="1" parent="1" target="aM9ryv3xv72pqoxQDRHE-2">
          <mxGeometry x="-0.0643" relative="1" as="geometry">
            <mxPoint x="160" y="570" as="targetPoint" />
            <Array as="points">
              <mxPoint x="255" y="570" />
            </Array>
            <mxPoint x="335" y="570" as="sourcePoint" />
            <mxPoint as="offset" />
          </mxGeometry>
        </mxCell>
        <mxCell id="9dg1Qpggz0v6w3t59ocL-2" value="Realizar un diagrama de secuencias para imprimir el ticket de la compra de un “Mc Chombo 1”&lt;br/&gt;" style="text;html=1;strokeColor=none;fillColor=none;align=center;verticalAlign=middle;whiteSpace=wrap;rounded=0;" vertex="1" parent="1">
          <mxGeometry x="120" y="370" width="510" height="30" as="geometry" />
        </mxCell>
        <mxCell id="9dg1Qpggz0v6w3t59ocL-3" value="&lt;b&gt;ENUNCIADO:&lt;/b&gt;" style="text;html=1;strokeColor=none;fillColor=none;align=center;verticalAlign=middle;whiteSpace=wrap;rounded=0;" vertex="1" parent="1">
          <mxGeometry x="20" y="370" width="100" height="30" as="geometry" />
        </mxCell>
        <mxCell id="9dg1Qpggz0v6w3t59ocL-4" value="&lt;i&gt;Papas&amp;nbsp;&lt;/i&gt;: &lt;br&gt;&lt;b&gt;Producto&lt;/b&gt;" style="shape=umlLifeline;perimeter=lifelinePerimeter;whiteSpace=wrap;html=1;container=0;dropTarget=0;collapsible=0;recursiveResize=0;outlineConnect=0;portConstraint=eastwest;newEdgeStyle={&quot;edgeStyle&quot;:&quot;elbowEdgeStyle&quot;,&quot;elbow&quot;:&quot;vertical&quot;,&quot;curved&quot;:0,&quot;rounded&quot;:0};" vertex="1" parent="1">
          <mxGeometry x="474" y="450" width="100" height="390" as="geometry" />
        </mxCell>
        <mxCell id="9dg1Qpggz0v6w3t59ocL-5" value="" style="html=1;points=[];perimeter=orthogonalPerimeter;outlineConnect=0;targetShapes=umlLifeline;portConstraint=eastwest;newEdgeStyle={&quot;edgeStyle&quot;:&quot;elbowEdgeStyle&quot;,&quot;elbow&quot;:&quot;vertical&quot;,&quot;curved&quot;:0,&quot;rounded&quot;:0};" vertex="1" parent="9dg1Qpggz0v6w3t59ocL-4">
          <mxGeometry x="45" y="160" width="10" height="50" as="geometry" />
        </mxCell>
        <mxCell id="9dg1Qpggz0v6w3t59ocL-6" value="&lt;i&gt;Gaseosa&amp;nbsp;&lt;/i&gt;: &lt;b&gt;Producto&lt;/b&gt;" style="shape=umlLifeline;perimeter=lifelinePerimeter;whiteSpace=wrap;html=1;container=0;dropTarget=0;collapsible=0;recursiveResize=0;outlineConnect=0;portConstraint=eastwest;newEdgeStyle={&quot;edgeStyle&quot;:&quot;elbowEdgeStyle&quot;,&quot;elbow&quot;:&quot;vertical&quot;,&quot;curved&quot;:0,&quot;rounded&quot;:0};" vertex="1" parent="1">
          <mxGeometry x="656" y="450" width="100" height="390" as="geometry" />
        </mxCell>
        <mxCell id="9dg1Qpggz0v6w3t59ocL-7" value="" style="html=1;points=[];perimeter=orthogonalPerimeter;outlineConnect=0;targetShapes=umlLifeline;portConstraint=eastwest;newEdgeStyle={&quot;edgeStyle&quot;:&quot;elbowEdgeStyle&quot;,&quot;elbow&quot;:&quot;vertical&quot;,&quot;curved&quot;:0,&quot;rounded&quot;:0};" vertex="1" parent="9dg1Qpggz0v6w3t59ocL-6">
          <mxGeometry x="45" y="230" width="10" height="50" as="geometry" />
        </mxCell>
        <mxCell id="9dg1Qpggz0v6w3t59ocL-9" value="2-&lt;br&gt;+getPrecio()" style="html=1;verticalAlign=bottom;endArrow=block;edgeStyle=elbowEdgeStyle;elbow=vertical;curved=0;rounded=0;" edge="1" parent="1" source="aM9ryv3xv72pqoxQDRHE-2" target="9dg1Qpggz0v6w3t59ocL-5">
          <mxGeometry relative="1" as="geometry">
            <mxPoint x="170" y="620" as="sourcePoint" />
            <Array as="points">
              <mxPoint x="266" y="620" />
            </Array>
            <mxPoint x="525" y="620" as="targetPoint" />
            <mxPoint as="offset" />
          </mxGeometry>
        </mxCell>
        <mxCell id="9dg1Qpggz0v6w3t59ocL-10" value="&lt;i&gt;precioPapas&lt;/i&gt;" style="html=1;verticalAlign=bottom;endArrow=open;dashed=1;endSize=8;edgeStyle=elbowEdgeStyle;elbow=vertical;curved=0;rounded=0;" edge="1" parent="1">
          <mxGeometry x="-0.0643" relative="1" as="geometry">
            <mxPoint x="161.5" y="650" as="targetPoint" />
            <Array as="points">
              <mxPoint x="262.5" y="650" />
            </Array>
            <mxPoint x="516.5" y="650" as="sourcePoint" />
            <mxPoint as="offset" />
          </mxGeometry>
        </mxCell>
        <mxCell id="9dg1Qpggz0v6w3t59ocL-12" value="&lt;i&gt;return&lt;br&gt;precioTotal&lt;/i&gt;" style="html=1;verticalAlign=bottom;endArrow=open;dashed=1;endSize=8;curved=0;rounded=0;" edge="1" parent="1">
          <mxGeometry x="-0.1299" relative="1" as="geometry">
            <mxPoint x="158.5" y="810" as="sourcePoint" />
            <mxPoint x="70" y="810" as="targetPoint" />
            <mxPoint as="offset" />
          </mxGeometry>
        </mxCell>
        <mxCell id="9dg1Qpggz0v6w3t59ocL-13" value="3-&lt;br&gt;+getPrecio()" style="html=1;verticalAlign=bottom;endArrow=block;edgeStyle=elbowEdgeStyle;elbow=vertical;curved=0;rounded=0;" edge="1" parent="1" target="9dg1Qpggz0v6w3t59ocL-7">
          <mxGeometry relative="1" as="geometry">
            <mxPoint x="162.75" y="690" as="sourcePoint" />
            <Array as="points">
              <mxPoint x="264.75" y="690" />
            </Array>
            <mxPoint x="517.75" y="690" as="targetPoint" />
            <mxPoint as="offset" />
          </mxGeometry>
        </mxCell>
        <mxCell id="9dg1Qpggz0v6w3t59ocL-14" value="&lt;i&gt;precioGaseosa&lt;/i&gt;" style="html=1;verticalAlign=bottom;endArrow=open;dashed=1;endSize=8;edgeStyle=elbowEdgeStyle;elbow=vertical;curved=0;rounded=0;" edge="1" parent="1" source="9dg1Qpggz0v6w3t59ocL-7" target="aM9ryv3xv72pqoxQDRHE-2">
          <mxGeometry x="-0.0641" relative="1" as="geometry">
            <mxPoint x="160.25" y="720" as="targetPoint" />
            <Array as="points">
              <mxPoint x="261.25" y="720" />
            </Array>
            <mxPoint x="700" y="720" as="sourcePoint" />
            <mxPoint as="offset" />
          </mxGeometry>
        </mxCell>
        <mxCell id="9dg1Qpggz0v6w3t59ocL-21" value="" style="shape=image;verticalLabelPosition=bottom;labelBackgroundColor=default;verticalAlign=top;aspect=fixed;imageAspect=0;image=data:image/png,iVBORw0KGgoAAAANSUhEUgAAAtoAAAFPCAYAAABzrWleAAAgAElEQVR4Ae2dXcg1V3n+7Z/Sk9KztkdCz1IpxZNSKBSh5KC0SAkeCCIGRBBUFGqDgVowIahvG5QGP7CBxIDfIGlJtEJJNDUYC+obP0hqan2ToGnUJE1smlQTE/f/uXZyPc/9rHdmnrX2nj175t6/geedPTNr3eu+7/Vba1173tl7v+QlL3nJij9yAAMwAAMwAAMwAAMwAAOjMzC6QYQ7b15gAAZgAAZgAAZgAAZggHcuvNGAARiAARiAARiAARiAgZ0wsBOjvIPhXSwMwAAMwAAMwAAMwMChM4DQ5h0cDMAADMAADMAADMAADOyAAZK6g6Qe+rs34ucOBgzAAAzAAAzAAAwgMnmjAQMwAAMwAAMwAAMwAAM7YWAnRnkHw7tYGIABGIABGIABGICBQ2cAoc07OBiAARiAARiAARiAARjYAQMkdQdJPfR3b8TPHQwYgAEYgAEYgAEYQGTyRgMGYAAGYAAGYAAGYAAGdsLATozyDoZ3sTAAAzAAAzAAAzAAA4fOAEKbd3AwAAMwAAMwAAMwAAMwsAMG6pK6YiMDZIAM7DADO5jcDv0uCvFzJxEGYAAG9s9AvdBmIazLFXkiTzDQxoD0Ozlryxn5Il8wAAMwsAgG6pxkIazLE9CTJxhoZ4D5pT1ncEbOYAAGYGARDNQ5yUJYlyegJ08w0M4A80t7zuCMnMEADMDAIhioc5KFsC5PQE+eYKCdAeaX9pzBGTmDARiAgUUwUOckC2FdnoCePMFAOwPML+05gzNyBgMwAAOLYKDOSRbCujwBPXmCgXYGmF/acwZn5AwGYAAGFsFAnZMshHV5AnryBAPtDDC/tOcMzsgZDMAADCyCgTonWQjr8rRE6G+//XZ17/F27733rr9qTXtdW2JM+LwsXgUffbasPqO/6C8YgAEYqGKgqtBahJHQulwtKU833HDD6qGHHlpdeumlCJ39f6n9wfYBQjvf3LKkeRBf4Q8GYGCHDNQll4WwLk877KidiDDdsfYd7E18l1DnrndONjbhYdM6zC/bMbS+E8I/ZKAhA5uOVeptN1bJ30Hmry5ojV8AqcvVkvJ0zTXXrJ555pmVBHPpd3x0RNfjJnGtv7jZhup5iyJer++66651e7r+5JNPrttV+z6+/PLL135or+veop3ST46Xz6X6mX7cvB/J3+a5O0Tu4AVeDpH7PcZcBxwDsy5Pe+zIjYVKFLVR0Oq1xLQeK7lw4cJKoryMz4Lb58tj29B1vY6PqXQdq75teT/UvsuwXzafzC/b9R/52y5/hzZ/wAu8HBrze463DjgGZl2e9tyZF4nUFn8kaCWEJYBVL4pkCWBtvma7UVi7/rpg+Md1oj3Vj3V97LJR/NuU75i7bfZ5mFQf05+b9yf52zx3h8gdvMDLIXK/x5jrgGNg1uVpjx05ilDRXWvdvZZoLoWxYvMjJL7zHMWyhXafIJa9eC3WlW0dq0xppzxeeo7x/+KxxPxycU5aOCF/2+WvJdcZysILvGTgeEEx1AHHwKzL04I6vlOYW+wqji6hrfMSy7qm111iOT4eEvNRK7R1N/vRRx89flRl6DnyaJ/Xy2WU+WW7viN/2+Xv0OYOeIGXQ2N+z/HWAcfArMvTnjuzUzwP+SShHLcoki20fUfZ5fThRT+vbRGsa75brXpxi+f9Wj51iXQLeJXzJp90lz3WHYqJa8tjVX1Nv23eb+Rv89wdInfwAi+HyP0eY64DjoFZl6c9diRC5Ui8k/9l5oD5Zbt+I3/b5e/Q5g14gZe5Mq8be31fvjBXnyv8qgOOgVmXp4qEIwYRxDBQMMD8st38srT8xQ8762s8dbzruTO2qf9N23V7c7a/NF7mnEt8227uKvOH0C4WxzJBHI8LHPkkn4fCAAv/dqwvMX8SvnosbAqRrXFUPqp2KGOrK84l8tIVB+e2mzfmmL8xhLYeaT1//vyc3kzXdRQDsy5PcwQXn+i7uTPA/LIdo0vMX6vQ1sLpz4ZswnP5YexNbGSps0ResuQ+QxwaS+WPz/kNs8aoHv3QdW3+36P42a3yf7FUxpu+CEFvwD3Wy3Grz2rFz5LFz3Pp82N33323Ta33bj+W0wV/5qv8DFrp20j9VTfBy7GRGsQO/zMAAzBwigHml7p5uG8OXmL+SqGtBVFiOv4irBbDvoWwPO8F1XZvvfVWpWX14IMPrhfm9cHRP15ItZD7V2l1zfWV4/KaF+W4WNtOX5/M+bzinbN/+LbdfLDr/En8RrGrseNjj504nvRadexXWV7i2kJdYyx+4cKQ0FZbsa7ty0ZsryynY41f7cuytjHyvq5DNTDZyAAZIANjZ+Dqq69emxx5Yjue1A/BrhI45zi90MYFz4LYC6zKRPGqBdCLd9d/J8cF2KJbdWRPduJCq9zE8mWuoi96Hb9e1GXlu39jQOfs3xVXXHH84S3H6Tpz3c+dl7nm7RD98ngSMx6PGkti3fmI4yeOcV2PY7OrfDlmyrFejluPO5Ur69q+ysTx31XOdh1fFPe2M+K+XmiP2OhxB2GzLv/kiTxlZoCF/zTfV1111erKK6+snifnnD8vcuUCHBdnse1y5jxeLxdfL46KO26yoWtdQtkLq+3Ln3hH2wttXMhd1v7FtvTabwyimCjjiDbm8lq+1/giBvVGuKYsZU6P4cz50FgS544xjtXyDWkcG13ly/FSjvVy3MbxWda1/Rah7Tr202Pa50fa18FROzBHcuq4A7FX1z/kiTwtmQHml9P8vuxlL1vdcsstq6985SurP/7jPz5zPpxr/rx4eWGOi1hcnMWuFs2+xbtcfPvEtOyUdj0u4oJd1o/HcSF3XfsnG/GcXztOxxDjdJk57c/iRcyJPTH4u7/7u50xzykefDk9f+w6HxoHvruttsS9j0uh7etx7MTyGm9xvKi+jrVXXdWL80JsW2W2fXQk5qqcZ+K1LV/XddBZA3NLJxjIR0CRQ3JwqAwwv3Sz/4Y3vGG9kPzd3/3d6ld+5Vd654i5508LpRbIuDCWglhl4oIar3ctgLKnv3LMxHrxmspqUde56IeOdd53tKPojvVVJwoAX4u+OU5fm+u+jxcxdu21166ZE3tz9R+/uueLqfKisXTWhyE1LqI/quMtCmuV0bjxJuEs0a7xpmvax/95UrvxEa5YN45htaHNc4rGeNw8F5Tnu+aUGMeGr+s6TA5u2AD1jmAhd+QABvoZYH7pz81v/uZvrm688cbVfffdt7rssss655Kl5U9i1guhF10tiF4UNVZKwewF1eW1kGtB9hYXWZ1X/TjmotDWedtTfS3c+vPiXi6+Ey/Kp/yOMYz1WjGXtsSWGBNrYq68znH/GD203JRj6dDi3yDeOni6BuYGjTF4Ed0wAAMXMcD8cvY8PCSEyN/Z+WO9OslR5KXmjRy5O8kduRj+YDH56WSl8yQLIWLoIgYYQHVjhTy15yku/OSvP399/7VP/vpzBk8X58a81D6aRA4vzuEh54Q72s081FXwwDxkuIi9jhXyRJ5aGWB+aWMmfljt93//95U+3hhzc6SaAfHS8mHb1vFM+bbxTL7S56suQCbyujwxYMgTDLQzoPnF36et13Hr+3oxyr+QpQceeGD9Au7auTvUnAmY+++/f80N/5CBuWbgjjvuqH7zOPOxXDc5qSNmHgj+cUcHBhbKAPNL3TzsOfgv//Iv198Mcf31169+53d+R+mD/YWy7z6dci9exI6+4UEsTdk2bbWN9UPOV6J5ra7TEwXMpMKCBAMzY4D5pW4eft3rXrf693//99XNN9+8+oM/+INjjslfXf4OWbTE2M2LGBJLYkpsxTK8hql9M2BO9+3HCO3XwZQoYCaTmYmsESCmTxfep8wvw/Pwn/3Zn63uvPPO9Z9el2NmrPyVX5knu/7KPe39umx/bsfl1/P5KwHn4mf87u3Sp6FrZdlNj0tezuJr03aoNzyuyc9wfkpOF5yv4UAdWKKAL1qkHCP7OhbIE3kamwHml26mau84jpW/8rurYz8v6ZsG5v6mYCjPQ9dif2zzuo+Xvv8xOaut+AbN3zl+Vh2ud4958nKSlz5OF5ijk6CGnE8UMEJ74Xc/hzjlWt14nluemF9O95ueu255hnas/OkHW+KvrpkTiT89z+sfdPH5Kfdq+/z581Xz91hvCiTYdyEcZdM/WV3mcOhaWXbT47N4KT8DMNSORbZy5de7yNmQD1w7PX9kycdZnC4ozroOShRw1US9oA4kHt44LJ4B5pfT87C+UeU973nP6td//der+nas/EkgSaSW818pwCWqvOm1ykuMq65+IlmbHtd4+9vffvzrjVFYqqyuu5yOZUO2br311uNrrhPbi78AaRuyY3E39OhFtKN25K/KWyCuHTr6R4JebXvT63Pnzq3P2VftdV57/cXY7UtfezqvNzRuQ3v54Bzoul5Hvxy3zm/7p7jOsiH2xGDft/64fsmGYo/xuBz77fvt0HJYw+lCclLX+YkCPnOCWUjHEccICw59XTf+d50n5pfT/fBrv/ZrTeN7rPxJLMbNgi8KcJ3zM88SWbrTLaGpMtpcR7YsDnXdd8T1WvVjOb22qLTtWMfXLGBtw8fau558UrvefD6WsT0LbQlDvY6cx9h0fkhQyrY2x6Tyfe3pWsyNfVF5X9Nrn7dfsu3XKrfNn3ytrX8Wi/I1+lXmrasd9Z9yrjc03hDn2/VpV56Xfq6F05nHWte5iQKunmBm3nHEseViQ//Wjf0p8sT8sl1fjJE/CzsLvtjvElJRDLuMzlkgRSFY2rKw0l51XScKZr22GFfbUbDF+rpWirt4vbym8qU/OqeYVLYU0LrW1UaMT9d1rD+/jmJzqL0Ys9uyLzEHMX7bc3uut+l+DF7cdpmX2BcuU+6dA8fj+NQfZVmOt5sblpy/MTndcx7qOjFRwAzkFxeSPYNHP9APxwwwv9TNw31jdoz8RZEX24kiyAJJ7WmzuIxlVLcUWxJQFtcSV958x1t1Yhkf234phmXDIs1lo/14rcufGKvadTsq67+yDYthXY/xxteuW8Yf24sCWuX7rsmvuOnY9rfdy+62Nly/zF8Zu8vFfYzZ58t8+zz7EyYPLRdjcrrn3NV1YqKAR5tg9txxxBEWRfqibhzPNU/ML9v13xj5K8WsWYnCKb72de1L4VTaiiIqvo42dD4K3lguvladWLYUulEQ2370z+UtzCUU/drlVUbPUCsOnXMdi1214UdSunJyVnuuK9uy5bijaI2v7ddY+zF4sS9l/sq+d7m478pZ2cexPK+3mx+Wmr8xOd1zDuo6MFHACNSjyX3P0NE+fXCKAeaX7cbkGPmTYIqbxWApnGI535Euy5SiKYpfi1a3ZZFZlolC123ap9KG2tOcVgrkOM/Jvjb5rA9Cxm8w8TVdj/7EY7XhLX6Qsozdbdpm2Z7sdH3gU/W68uY2yzcDbmeTvWxuUq+rTnxToeuKwTnsKq9zCO3txntfXrOdH5PTPeemrsM92NmTATJABsbMgL7VQNueJ8JFt0/+6tYxGHshT2Pz4jdCsus3Q8q1BLffIKiM35ghtOG1ZiyOzWlNmzsqU9fhiQJe9IK6IwjIydGiQG73lwPml+1yT/62y9+hjX14gZclMJ+I0zrgEgWMoEJUwsDMGGB+qZuH+xZH8rdd/vrymvU8vMDLEthOxGkdcIkCRmTNTGQtYcDjY908sWmemF+2yy/52y5/m3K71HrwAi9LYDcRp3XAJQoYoY3QhoGZMcD8UjcP9y2O5G+7/PXlNet5eIGXJbCdiNM64BIFPCiy9IENf3hjCSDi4zC/+jCOPgVPnobztO/8HMr8sqs8K39sZKAmA3z4eN5z4a7miCXaFc9L9LvD5zroNglYAkdb/BRyhwOzSWT51VD6ZLR8j5tFeM1XGM01VvdLjEtvMObmr0Ryn1/6Si3/9POQ312fbh8q79yo3++5554zv6ZqyBbX6uYW5Ukb+arPV5kr8rd57spcHsIxvMDLEjhPxGkdcK0BtwqcOXR6+X2oiiH+JHD0celC+6zvOY2x7uv1GEJbvg/ZibGVzC65j2NcS3jdOr8sIaYpfSR/devYlH0y57bgBV7mzKd9S8RpHXBDAZcCVUnqOufk1e51N1Nip7b8tuVKYbUUoa078RKT8rcmB2WcNXX6yuhHH9TXfde3OT8kkNVmzR1ttS+OZEuvh3JVMjtGnoba2yY32eoOzS/ZYt1FPOSvbh3bRe6XaBNe4GUJ3CbitA64oYBLgSJhEzeLZYkdb+XjJPGaHs+QgIubRbdtCZIotnw3Ur+4pc3CKtqNbcrOXXfdtX4e21+ir7LRfovQju24bfmo12pHbWiTD4olHkeBXGvHPquubHrzoy3KjdvQtRiXXkcfPeBKW7GMBKNse3vwwQdPHTu3qqP4bFOvo0/6tTflQ5v8GGpTtsrcOVex79WW2vFmX+xD5NN5iT6W9e1bmafYhspEGyrr7ay+sV/sT+Ye5Y58nOSjNRfkb/PcteY6Q3l4gZclcJyI0zrghgKOQsad13XO17SXMNGfX0dR53KxjMu5jo7Vhu9qWrB12emyJzsWRL5eikTbVOzebF/14+vol877WK8tNNVO17HLau/XLuvjsp7O65zKyU+1YRGqfXzkxXFYGKpu3Mo8yKaEdfwJZLVlX3S9q4zOqZzb0bFeO36L3NJOn72umKMt933JWmxTtsvrbq/cl+VijnXN7dmmBL3Ol3bUfl/flGU5foEl8Ugu6ubirjyRv81z15XP7OfgBV6WwHgiTuuA6wpYgqLcfDexFC3qVImPuOnYd0plq+x4CZ0oysrjKH5KcWlbXW3qWhRRsWz0o89mrG//Y1x6baGl/VAM9qPVTsyv/IxCWzFYkDq2mDu36WveW5DHWGSrLw+lGJcdxRtzGH2J/XVWm7YVcxfjjLZUptzMoezEXLndrn1ZLuYpvnbdGGvpg/MffXY99hfPOeo/8nJxXmpzQv42z11tjjOVgxd4WQLPiTitA24o4FKgqAPLc6VQ8bEFZhRnBkBl9Nd3rDZ8l7FL0LiNWN8CuLStMuW5PoHpsrI15L/KRTHmemVMm9iJ+S1jj+JWbZbtlnnR9TKOeNyXB5WJd71lp4w3+hJ9PqtN24q5inHGvu+KR/X9V7br8+W+LBftxteu51hjjLoWj6PPrsf+pG+ci6H5xWXYX5w354T89efGOWJ/kiN4OckFXMw3F4k4rUvyUMClQBG45TmJEosmizidU9kuEePzruNj1/Gx71x2CZqz2oy2bS/a7xOYZVnZ8R1MXYt/sifh5XMqG9vVa7fZYifmt4y99FvHypP9iG3ar7KO7OuREteJuXSdPqEd41M95yb6LBs1bbquysf8yJbfZOm14tPevsW9YnCO4/nydelfzFNsT/Vim7GcrsWYFaNi0L5sj+OTsTI0v5Cnkzz15YL8nZ2jvtwd4nl4gZclcJ+I0zrgWgMuRYuEhsSQNgk4fcjN4sfCe33x6B+LK9lQWW0SS9GGzukDkxYxXYImli/blDjSX4RtyGe1p82+dYmrF0q88G8UqH6ttsp2N7VT+qpcarN/MXc6H2Mt23QO5Kc32dHdavsec6ky7jvZ0uY3PGW76mfZUR+XPqvdoTbVv/pwqxlwG6onWxbapR35Y/90Ta8dv/1zXLruv9K/Mk/RV7VhGyW/MWa3r/LuG7fH/iT3yg/5OMlHay7I3+a5a811hvLwAi9L4DgRp3XAJQq4d0G3YLKAWgKI+DjMb9cbMHI2nLN95OcQ5pdd5pX8zY/pXfb3trbhBV62ZWiK+ok4rQMuUcC9QlvgSGRz57GOiSkG2rZtxLvZ29qi/u64OJT5ZVcMkb/dsbmrPtunXXiBl33yV9t2Ik7rgEsU8KDQrgWAcnXckCfyVMMA88t2nJC/7fJXw2imMvACL0vgORGndcAlChihHZ5LXsJgw8e6MbrkPDG/bNfH5G+7/C157GziO7zAyybcTF0nEad1wCUKGKGN0IaBmTHA/FI3D/ctdORvu/z15TXreXiBlyWwnYjTOuASBTwosnhGu46HJQzSQ/dxSc+nH8r8sismyR/zVgtb8AIvLbzsq2wiTuuA2yTg8qvf9tVZte3qW0fKH2BRXX+13VTfRjL07Sdjiyf3kfrXm+Isvz6vNodzKOf+cjzaz/EDruXXCcbcKQZ9faHKxPMtr1u/ccUs6GsU77nnnlNfkdjS7iZl1Ueb1KPOC/M3+atbx+AFXmBgOWMl0bxWl/TWgFsX+TnA3yd8JDwlwPW9zlP4OSS0x26//K5o21+60N5WpDoPu9z38aY2xxDasqM3ZjVvEMvx2sfFrvLROr/syo+l2iV/devYUvt3bL/hBV7GZmoX9hJxWgfcUMBdgqHrXGtHSCBowW+tt2n5PnEhsfLpT3+68273pm0N1dtWaJ+VN/WNfghGPvTFrDLxB2GG/J3imt7kyKeatsYSqWpLbe7qDZZs+8d8yrhqY1BfDwlpXRO/si+u9Fq2y/ZKX/q4KOsNHQ+1V9Ybml/KshxfPGeTv4tzAif9OYGX/tzAzXxyk4jTuqQOBVwu0lrc42axrEXeW/yVP4Edr+m/+SVu4iabsmNbqqN2LQZ9R04CUpvFRbQb25Qd/YKf2tIvD8qWykb7bsNiqGy/y0bXOdn2rxvKN5XpEtOO59y5c2u/ugRU9LErz7Idt2jDfsTHKFTeuYoTjH2xKHNd2Xa+Yn6UI2+2GY9tu8WO/HKebCv2oa57i+eHRGrMT4xD/sV86trdd99t8+u96sp/86A69s95lk9iUP7Yp742bavMneyWMbgdOySbzqnzYB98Xnu3ofrOfVkuxi37sq0/2bWtsky00RWf/Ff83iJzthn3KhePeV03LztP5K8tX87boe7hBV6WwH4iTuuAGwo4LubuvK5zvqa9F3O/jou6y8UyLqdzvq42otDWwt5lx+WjPb0uhZbqRgFRtlnG1GWj65zb114CRKJDe7UVBYjaV32LqtIX1Y9lJNDkU7Sv17KhP5+36Ilt+ZrKxc05KXNrn1UvXtNr1bGvXcexj2rtyGfVkz3lo4xVfse+1rHjc7wxrljWsctnn48x+br2sYxjP0toW2BHO34d7ZW5st8qE+NXXfmp83rdx4fKlG2rjeiv/Sj3ZbmY3zI3OlY72pd2YnyKIfZ3WTYeD80vsRyvu+fryDqvycBQBq6++ur1ZcZS91giL/PJi0BN0h91Se0KWItquXmhLxduJUtCIG467hMNKq/FXn9OdHkcBUApTFynq03b1jWX017HFjM6tm/RZwvRPhtRoNi2/FQ9b7YRBWT03+1GX2xLPjon2msr44h5si33i+143+WvrsXcdvWzY4jlVK8UVzGuFjuy5f6IedJ5xxTzE9uNbap8/HPO3BcW5315UBsxv4o3CtfSl9g/brevzTJ3Kq+y+osx6LX6r9xUzm1ob19iX5f+xvLxdVlOth13fO067hsd63rcnNPYJ67Xt1f9vmucP81wVz7I39k56srboZ6DF3hZAvuJOK0DbijgcpFWB5bnysXaxxYHUTQZAJXRX9+x2ui7W6o6biPWj+Ih2nb5eK6MoSyjsrF8eV3HUTB1HduG4rdAGcpJl5BTXW32xTbVnv8s1iyQfV5lnROf0z7mNvoWy7hcFJ6luIrxt9iRbYs55UNtyCed78pPbDe2Gf0t24/HfXlQmZifkonSF/vsdmMbOhePY45d3n0XY4ivXS7udV3iuuxblSn9jfXi67JczEd87TqOM8aja/FYfnFH+2QMOne72A/Nz7toD5vT9Ouu8gwvy+6/XXExN7uJOK0DbijgcpFWZ5XntDBrwdY1ixMLmK6FXOV03nV87Do+9t27rkX9rDajbduL9mN9Xdef4rK4L/2zjWg3ltd1CZEoiOy3BImuqYzz42Od81+XT7Zr37v8cn3bto/au57LaB/9tpDr8qfsZ8ejvexo70dAWuyorvxSm/I5Cm1dK/3Wsd+oxDZV1n9lHdl3nRivy2uv9mN+ynI6Vn86N/bZNs5qM9aN+SljkN3oh+2rXY8Bn4v70v94Lb4u+zH63RWz2tT5WE725KNzqhj0WvvYVtfrofmlqzznTrhWLsjf6XzAx3A+4GU4P/Azj/wk4rQuoa0Blwu3RYTsSFzog4gWDhZ/uqbNC7VsqKw2CYZoQ+f0gUkv5F2LeixftimBoL84oKLPqmuBGMvYV/nTZaPvnPzVJsFYikblIYolt/FCjRf+9XWVVRtlGcUn/+Vrmbfof/latspNscmG31CUNlU+9pHikT8qV/ZDmcfo25Ad2VKs8kWv7afz4Ov2PZ4v21RZ/ZU5E4PRd7chm86nbMm2Nl0v21UeZMN+Rp/PalO5EMOq481tlDGUvts/x9a3Ny+67tzb11hH18pcqK7LqE7cbKP0q8ypYzMvtlfuZbs8x3Hd3Kw8kb/6XMEVvMDAMsZLonmtLuGJAu5d0C0aLCKmGowSV1HUTNUu7dSxv9Q8Saz7jejcYziE+WWXfUD+co/lsdmBF3gZm6ld2EvEaR1wiQLuFdoCRSL7rLtvYwKlO4m6Y6r9mHaxVcd15jzFu9lzj/NQ5pdd9cO+8lf+T8e+bhj4ZoX2tTdK7Lvm33/91389qJsd++JlV/xjN+d6l4jTug5KFPAsBK3vniuvflyAyaKORfKUL0/ML9v16b7yp7nL81f5uNO241Q3H+Lja3324s0R1an5ganS1xhHXzuZzu+Ll0w5JJbt5qya/CXitC5ZiQKehdCugYwydWySp+Xniflluz4cyp9Epe406839tmNFgjTeMZZdH/vmgY+3baumvtrUZwv8P4K1saq8P5Mwlt8S+Pajxvd9lhniZZ9+0fZ280C2/CXitK5jEwW89WKTDWbiqRsD5Gl3eWJ+2S63Q/nrE58SxN784XSVFefxmkW6HqnzptdXXHHFKZGrOv5QstuUXW0W3xLq3nwnXO3F8350Twl7aSIAACAASURBVOdcRvb8oeRoT3bj4yoqp/raS/R2PZYX29L1f/iHfziuI1/62irz4pypfvQt+qM6c/xTDufoFz7Nk5d99UsiTus6NlHATDAznfz3NZhpt24O2GWemF+264Ou/EWxrOva/G01uubX6leJQwvceE2i09++JOEaH+XQsWx4k9hUedlz2xbKOqfXLhNtxfNmLN5ltvCVTdu2Hfnt87qmshbaOu9ytuu92rRv8sV3t4faUjnZ0152ypw5f25jznv12Zz9w7ft5oMs+UvEaV2HJgqYCeZokcgyEIkjR18yv2zXj0P5k3iUKJR49XjRsYWmzkXhGa9FsarXumYb5bHP214sG4Wzr0uYlnfFbaMUzNGWr507d+7UHXXVjaLZtsp9ly+2X8bktpzDvpzF/JXtzfF4iJc5+otP280PS81fIk7rOjBRwMcLxVLhw+86ZsnTcvLE/LJdXw3lzyLRQlv7+FxzFJ5+LXva4l3aUkyWxx5vtiHR6nPyQXeDvVnYRiHrstqrrtsu2/E1CW2VkQ3XLYWyz8d92aZ8URsq09dW+YagjFE2YryxvTm+Vj/M0S982m4eyJa/RJzWdWyigJlgjhaUbAOSeJbdp8wv2/VfS/66RKIfI9G1KMI9rrrO94nLUsjKRtc5n/ejKW5L+yh49drCPPpe2ozXysc8om0LdZUv4+prK9qWLfnjx1JKP2Jbc33dwstcY8Cv7eaMJeQvEad1nZUoYEQmQhsGZsYA80vdPNy3OLbmT4LSW/lrnhKp8dlr36mVuNSmfSlQo199j2/IjjcLe9WL5y1e1Ybbtch1XfmueqXAje0OCe0opksbfW2pvZizW2+99TgPsY59i/mY42vlco5+4dN280C2/CXitK5jEwXMBDMzkZVtciCeujkl5on5pT1nY+UvCs9ocwmv/ZV6Q8K/jCOK+PLaoRwz3rYbb4fCyb7jTMRpHXCJAkZoI7RhYGYMML/UzcN9C9+m+dMdXd1F9t3jPvtzPS+/Jbb1rHbN3WTF2/Woylzj25Vfm/KyK3+wu934z5q/RJzWdXCigBFZMxNZWScJ4qqbW5Qn5pf6XHVx1ZK/8tGQGoHa1ebSzilObYcS71D/tPAyZIdr241b8jecv0ScDgdqEBIFjNBGaMPAzBhgfqmbhz0fl3vyt13+ynxmP4YXeFkC44k4rQMuUcCIrJmJrCUMeHysmyc2zRPzy3b5JX/b5W9TbpdaD17gZQnsJuK0DrhEASO0EdowMDMGmF/q5uG+xZH8bZe/vrxmPQ8v8LIEthNxWgdcooARWTMTWUsY8PhYN09smifml+3yS/62y9+m3C61HrzAyxLYTcRpHXCJAkZoI7RhYGYMML/UzcN9iyP52y5/fXnNeh5e4GUJbCfitA44BcxGBsgAGdhVBpYw8c/VR/XJXH3Dr7o1dso8wcv8+mTK/l9KW4k4BbilQIefsAoDMNDFQKIFiTcME/xvE7wwj3TNI3M7l4hTgJsbXPgDkzAAAy0MJFqQENoIbRiYgIGW+WVfZRPNayxo+4KIdmEPBmBgDAYSLUiIrAlEFrww74wx7+zaRiJOAW7XsGAfxmAABnbJQKIFCaGN0IaBCRjY5Xw0lu1E8xoL4FhQYAeWYAAG9sFAogUJkTWByIIX5ql9zFOtbSbiFOBaO5/yMAMDMDAnBhItSAhthDYMTMDAnOavPl8SzWssmH2dzHnYgAEYWAIDiRYkRNYEIgtemNeY1yZlYNLGmEQnmESXMIDwkXEHA+MxgHAaL5eHwCW8wMsSOE/EKcAtATh8hFMYgIE+BhItSNyMmeBmDLwwl/TNJXM6n4hTgJsTWPgCjzAAA60MJFqQENoIbRiYgIHWOWYf5RPNayxq+wCINuEOBmBgLAYSLUiIrAlEFrww94w19+zSTiJOAW6XoGAbvmAABnbNQKIFCaGN0IaBCRjY9Zw0hv1E8xqL4BhAYAOOYAAG9sVAogUJkTWByIIX5qp9zVUt7SbiFOBaOp6y8AIDMDA3BhItSAhthDYMTMDA3OawLn8SzWssml0dzDm4gAEYWAoDiRYkRNYEIgtemNuWMLcl4hTglgAcPsIpDMBAHwOJFiSENkIbBiZgoG8umdP5RPMai9ecwMIXeIQBGGhlINGChMiaQGTBC3NM6xyzj/KJOAW4fQBEm3AHAzAwFgOJFiSENkIbBiZgYKy5Z5d2Es1rLHa7BAXb8AUDMLBrBhItSIisCUQWvDAn7XpOGsN+Ik4BbgwgsAFHMAAD+2JACxLb8jLws5/9bG9O74tV2mWerGVAg6O27MzL0ekz76AsoBHHBHeqYJn5DAaWwcDPf/7z1eOPP756+umnmRuZG2GggwGEdkdSmOCXMcHTT/QTDMAADOyPge9973trgf1bv/Vbq1/+8perj3zkIwgtNAUMFAwgtIuEMGnvb9Im9+QeBmAABpbBwJ/+6Z+uxfWb3/zmtbD6p3/6p5XubtN/y+g/+mm6fkJoI7SZGGEABmAABmCgiQE9KvL1r3/9VJ1nn312ddttt506h6CbTtCR63nmGqHN5MqkCAMwAAMwAAPVDNx1112rX/ziF6v/9//+36k6enREYhvBN0/BR7/sp18Q2kyuTIowAAMwAAMwUMXAr/7qr66ef/751Xve857O8k899dTq3nvv7byG0NuP0CPv+807QpvJlQkRBmAABmAABqoYePLJJ1cXLlzoLfs3f/M3q+eee673OqJvv6KP/E+ff4Q2kysTIgzAAAzAAAycycCnP/3p9QcgL7nkksGyjzzyyOrhhx8eLIPgm17wkfP95ByhzeTKZAgDMAADMAADZzKg569vuummM8u97nWvWwvyl73sZWeWRfztR/yR9+nyjtBmcmUihAEYgAEYgIFBBn7yk5+sHnvsscEyUbz9x3/8x+p//ud/qsvHuryeTgSS693nGqHN5MpECAMwAAMwAAODDGzyM+uq89u//duDdhF6uxd65Hi/OUZoM7kyCcIADMAADMDAxgwkEhIb5wAxu18xO+f8JxofdPKcQcM3+IQBGICBnAwkEhIIbd5wjs5AovGRcwJjYaJfYQAGYAAG5sxAIiExusiac7/h2zTzSqLxMU3CAJM8wwAMwAAMwMAJA4mEBEKbO9qjM5BofJwMeiZAcgEDMAADMAAD0zCQSEiMLrJgcBoG55znROODzpwzaPgGnzAAAzCQk4FEQgKhzR3t0RlIND5yTmAsTPQrDMAADMDAnBlIJCRGF1lz7jd8m2ZeSTQ+pkkYYJJnGIABGIABGDhhIJGQQGhzR3t0BhKNj5NBzwRILmAABmAABmBgGgYSCYnRRRYMTsPgnPOcaHzQmXMGDd/gEwZgAAZyMpBISCC0uaM9OgOJxkfOCYyFiX6FARiAARiYMwOJhMToImvO/YZv08wricbHNAkDTPIMAzAAAzAAAycMJBISCG3uaI/OQKLxcTLomQDJBQzAAAzAAAxMw0AiITG6yILBaRicc54TjQ86c86g4Rt8wgAMwEBOBhIJCYQ2d7RHZyDR+Mg5gbEw0a8wAAMwAANzZiCRkBhdZM253/Btmnkl0fiYJmGASZ5hAAZgAAZg4ISBREICoc0d7dEZSDQ+TgY9EyC5gAEYgAEYgIFpGEgkJEYXWTA4DYNzznOi8UFnzhk0fINPGIABGMjJQCIhgdDmjvboDCQaHzknMBYm+hUGYAAGYGDODCQSEqOLrDn3G75NM68kGh/TJAwwyTMMwAAMwAAMnDCQSEggtLmjPToDicbHyaBnAiQXMAADMAADMDANA4mExOgiCwanYXDOeU40PujMOYOGb/AJAzAAAzkZSCQkENrc0R6dgUTjI+cExsJEv8IADMAADMyZgURCYnSRNed+w7dp5pVE42OahAEmeYYBGIABGICBEwYSCQmENne0R2cg0fg4GfRMgOQCBmAABmAABqZhIJGQGF1kweA0DM45z4nGB505Z9DwDT5hAAZgICcDiYQEQps72qMzkGh85JzAWJjoVxiAARiAgTkzkEhIjC6y5txv+DbNvJJofEyTMMAkzzAAAzAAAzBwwkAiIYHQ5o726AwkGh8ng54JkFzAAAzAAAzAwDQMJBISo4ssGJyGwTnnOdH4oDPnDBq+wScMwAAM5GQgkZBAaHNHe3QGEo2PnBMYCxP9CgMwAAMwMGcGEgmJ0UXWnPsN36aZVxKNj2kSBpjkGQZgAAZgAAZOGEgkJBDa3NEenYFE4+Nk0DMBkgsYgAEYgAEYmIaBREJidJEFg9MwOOc8JxofdOacQcM3+IQBGICBnAwkEhIIbe5oj85AovGRcwJjYaJfYQAGYAAG5sxAIiExusiac7/h2zTzSqLxMU3CAJM8wwAMwAAMwMAJA4mEBEKbO9qjM5BofJwMeiZAcgEDMAADMAAD0zCQSEiMLrJgcBoG55znROODzpwzaPgGnzAAAzCQk4FEQgKhzR3t0RlIND5yTmAsTPQrDMAADMDAnBlIJCRGF1lz7jd8m2ZeSTQ+pkkYYJJnGIABGIABGDhhIJGQQGhzR3t0BhKNj5NBzwRILmAABmAABmBgGgYSCYnRRRYMTsPgnPOcaHzQmXMGDd/gEwZgAAZyMpBISCC0uaM9OgOJxkfOCYyFiX6FARiAARiYMwOJhMToImvO/YZv08wricbHNAkDTPIMAzAAAzAAAycMJBISCG3uaI/OQKLxcTLomQDJBQzAAAzAAAxMw0AiITG6yILBaRicc54TjQ86c86g4Rt8wgAMwEBOBhIJCYQ2d7RHZyDR+Mg5gbEw0a8wAAMwAANzZiCRkBhdZM253/Btmnkl0fiYJmGASZ5hAAZgAAZg4ISBREICoc0d7dEZSDQ+TgY9EyC5gAEYgIG8DNxxxx1au9hmkoEnnnhiJp7gRqYMaJxnmMfVJxniOIoh76JCbPQtDMAADJwwkGjhyrIAEwcaZHQGsozzLHEcrUEnkzCvyQUMwAAM5GUg0cI1ujiB+7zcH1rfZhnnWeI44o/BRQ5gAAZg4BAYSLRwIbRZu2Ggh4Es4zxLHEdrCwssOYABGICBQ2Ag0cKFyGLthoEeBrKM8yxxHK0tLLDkAAZgAAYOgYFECxcii7UbBnoYyDLOs8RxtLawwJIDGIABGDgEBhItXIgs1m4Y6GEgyzjPEsfR2sICSw5gAAZg4BAYSLRwIbJYu2Ggh4Es4zxLHEdrCwssOYABGICBQ2Ag0cKFyGLthoEeBrKM8yxxHK0tLLDkAAZgAAYOgYFECxcii7UbBnoYyDLOs8RxtLawwJIDGIABGDgEBhItXIgs1m4Y6GEgyzjPEsfR2sICSw5gAAZg4BAYSLRwIbJYu2Ggh4Es4zxLHEdrCwssOYABGICBQ2Ag0cKFyGLthoEeBrKM8yxxHK0tLLDkAAZgAAYOgYFECxcii7UbBnoYyDLOs8RxtLawwJIDGIABGDgEBhItXIgs1m4Y6GEgyzjPEsfR2sICSw5gAAZg4BAYSLRwIbJYu2Ggh4Es4zxLHEdrCwssOYABGICBQ2Ag0cKFyGLthoEeBrKM8yxxHK0tLLDkAAZgAAYOgYFECxcii7UbBnoYyDLOs8RxtLawwJIDGIABGDgEBhItXIgs1m4Y6GEgyzjPEsfR2sICSw5gAAZg4BAYSLRwIbJYu2Ggh4Es4zxLHEdrCwssOYABGICBQ2Ag0cKFyGLthoEeBrKM8yxxHK0tLLDkAAZgAAYOgYFECxcii7UbBnoYyDLOs8RxtLawwJIDGIABGDgEBhItXIgs1m4Y6GEgyzjPEsfR2sICSw5gAAZg4BAYSLRwIbJYu2Ggh4Es4zxLHEdrCwssOYABGICBQ2Ag0cKFyGLthoEeBrKM8yxxHK0tLLDkAAZgAAYOgYFECxcii7UbBnoYyDLOs8RxtLawwJIDGIABGDgEBhItXIgs1m4Y6GEgyzjPEsfR2sICSw5gAAZg4BAYSLRwIbJYu2Ggh4Es4zxLHEdrCwssOYABGICBQ2Ag0cKFyGLthoEeBrKM8yxxHK0tLLDkAAZgAAYOgYFECxcii7UbBnoYyDLOs8RxtLawwJIDGICBNgY0AbKRATKwfQYyzD3bZwELZGCZGagcv20LbKVR3mnyBgYGEjOgKZG5gLkTBrZjIMs4yhIHPG/H86Hlr4F7EntocBAvzG/LQMMEgyBP/IZrW44OvX6WcZQljkPnkfjbtEED922G6QjyBQMw0DDBILQR2jDQw0CWcZQlDtY21rYWBhq4J7EtiaUsvMDASzS/IJ56xBN8MEfUMpBlHGWJo7bfKMcYFwMN3JMwBg0MwEAbAw0TDIIcQQ4DPQxkGUdZ4mAdaFsHDj1fDdyT2EOHhfgZA60MNEwwiKwekdWac8rnG6dZxlGWOBhj+cbYLvu0gXsSu8uOwDZ8ZWSgYYJBaCO0YaCHgSzjKEscGedqYtqdBmngfndO0MHkFgZyMtAwwSCyOkTW7bffrhQeb08++eTq8ssvHyVX11xzzerChQurSy+9dBR7jOHdjWEBkCG/WeKYsi92OQcoDuaB3Y1bc9LA/e6dsVPsyTUM5GCgYYJJISTG5laL7L333nucGx0/9NBDo4hjFtjljLEs4yhLHGOP8z57Gu9jvrnuaod5YPfzQAP3u3emCwLOkXcYWC4DDRPMsZikv0/6uxTaWhQfffTRUe5qj7HA3nDDDSv5SJ+d9NkucpFlHGWJYxd9XNrU+JTI1r68NubxGPPAmP5ktNXA/W4nkozJJSaYOXQGGiaYnS4mS+2HUmjr2He09fquu+5aHz/zzDPrBVmPgei6N5dV/OU1PTbiR0f0OIrKxsdSdCc9imgde1PZ8+fP+3C9l+hWO7Hcru/GLbVfW/1WglvrzLF8ljimyK3GUxy/ZZvleI5lNW41PjX+tGl+kL14bAFvoa25wFsc97qu+t7itdInjrs1j3JXmZtuA5WVaxuhXMdzmuQY9pbKQMMEw9jvGPta1OJWLqYW2OajSxzrnK7Lll/rWK9t7yyhXdZ1ezqvv3gc29A1t+Ey7NvnsyzjKEscUzDcN+bctsZZHHs69tjT+fgmt+vYZS2k/UZZc4Hq6liv9T9oFuXxmv1gf/Z4buD+bGMknBzBAAxEBhommGOxFusf+uuhxba8Vi6Kyp3vVl1xxRVrwevFNF7TnTHVlSDW3jn3Qu47Z7Guy8gH/em4q1yXXddlXz9XZBlHWeKYgl2Nt743qUNjXeOwnBtky8JavkfbmiPKx9E8rmM5x+xrPmZ/9jhu4P5sYyScHMEADEQGGiaYY4EX6x/663LBjPkoF7yhxRehvexxmWUcZYkjjsNdvZYA1p1l302O7QyNdQttzQ+ug9De7/hv4H6/jhoY9vQDDCyHgYYJ5nhRoH9P+rdFaCtvvgvtHOrYd7Lia12Xbd8xKxduHWuR92Ld54fOu4xtuj0fuw37xP6kf2tzkWUcZYmjtt+2LaexFB8BifZ0LY69OL7LcXmW0PYz3LLvsa86ffOCrkVfeD08phu4HzZEoskPDMBAyUDDBMPEfbTIlfnTghmFa7xeLqa65sc3lHdtUeSW1+KHIVVX9rxpcdeHqXRuyK7utvmDUl585a+3PpEQ4+D1xf1e5kT5LM8t8ThLHFPmPo4n5c/zQTme41gv54azhLbGemzH415xxjGu9uO1KfOw5LaUt0r/z54MKg3VNki5joWXHMPhkhhomGAY74x3GOhhIMs4yhLHkuZgfN2/Zmjgfv/OAgx9AAPLYqBhgkFk9YgsmF8W87voryzjKEscu+hjbOYd5w3c500CgNO3MLAbBhomGIQ2QhsGehjIMo6yxMF6sZv1ImteG7gnsVkhIC7Y3hUDDRMMIqtHZO2qb7C7nHGfZRxliYOxs5yxM4e+auCexM6hw/ABDpfEQMMEg9BGaMNADwNZxlGWOJY0B+Pr/jVDA/f7dxZg6AMYWBYDmmDYyAAZ2DwDV1999bpyhrlv8yxQkwwsMwON43dZC3yGSYkYYG7pDGhqXHoM+M843DcDWcZRljj2zQPtL2tOauB+WYEBIv0FA/tnoGGCQZD3PDYAx/vneN99kGUcZYlj3zzQ/rLmhAbulxUYINJfMLB/BhomGIQ2QhsGehjIMo6yxMHasv+1ZUl90MA9iV1Sx+IrvM6BgYYJBpHVI7Lm0I/4sN/5JMs4yhIH42G/42Fp+W/gnsQurXPxF2b3zUDDBIPQRmjDQA8DWcZRljj2Pa/S/rLW9gbulxUYINJfMLB/BhommJ2LrMsvv3z10EMPrbTfJRuXXnrpuh3F7u2GG26obvP2229f3XvvvdXldxkLtvc/htQH2jL0RWscGjflpvERc6HjcvN4K+tr/Gt8un5Z98knn1zPDxp/ZTtx/uga466rcnpd1r/mmmtWFy5cWJ07d259vfRZx/bbNlzmmWeeWam+/R7ad/k+VH6Ma8qHYit9dBwt/o/hz9xsqB8rfZrHhFPpbG1QlOu5g0Ke4X0MBhommJ2PxbhQjhFbn419LHR9vnA+xzie0zjahqnWOCQ8ozi2wI1vRCVo47H9k+h79NFHe99Yq57Fset43zWG4/xhPyyMXU/7PnFpoa26Lq/6pe8qJ2Eabev1XMVqX7w+L9/1Wn1RCnHnIfu+gfscE1b2DiU+OJ0TAw0TzPHisyv/NdmPeUf7/PnzFy0cQwuw4tKiU97p2lW82M0zF8xpHG3D1VAcfUI0Cm21XYq2PqGtsVbWte9qSyK7T/htK7TVruaH2H5ffKXQ7mpbfsc4Nc+onHLhmFr3Y9nQnezrrrvuojvayn+MLfrf6uvSyw9xX8SWZ9IqAtsYVOzABAwMM1AzwVgAa2HyFhco5VgTtrd4F8qLlyZ7b57Q47FsdLUTFwK9vvXWW9cLsNuwcO6ypTJqq2RA51w/XtP5uFl033XXXesF2Xes7L/q6rXyInveVM929dqbyqhsvO5y7Ic5nXt+1Mdz97HGv6E4PJY15mxLLJdzga5prGps6HUcL66nvcZ73xjts+v60b7Pef7Q3vNC11hzube//e1r312mL744Bw3ZjfX1urzrbT+j733zh3PjuaPMcXnd5RyL2/JefpePjqht95HKnZVz28q4H+K+iHfZE1URzPFA5jz9CgO7Y6BmgvGk7km5XGx0Pi5GOvbCUC44Xcf+7+O+dtyu2igFss55cSn9GuJGdby5vsqrLbfnYwts29N1x6vX0ae4WCme+N+xZey2x353fE+V25pxNJUv27QzFIf4lVjTOHMbkXef017jw+NI+7jF8eQxq+ueM1Q/jrFo16+jfZ/TeJMN7aNdt237sZxi8vzTF5/Hutopx7Tb1j7aiufL19H3s+YPx1PaaD1WPkqhHf2Qva74W9tZankxUun78ierykBrE0K5o8FDTsnBEANdE0wUoVoIuhYXndefF7QoVvsWMvkRr/nYYrSrHdn1QlcuDCovkVtu8mso5nhNi0u88+S4XEbHbr/rXHk9xtclQmQr5so22S97nHaNoyX2aVcc4rXc/Oayi3HFHcdqOUb68qI6FsN9dl032ve5OPa65qWucjonW/rrEpryQ9dcd8huV33Xi/voe5mbGEN8Hetv8rpLaKtt/dlerf8un2nfxX1PfMueqHqCOoaA6/QvDIzPQM0E0zXhe5LuWnhi+XLyjtfUnzpuEdpa+MxBrOtzm+wdi+rG113HPufFtywf4+sSC6oXY9jEX+qMPw62zWnNONq2jSnqD8VRjmX508V4OS41RjxehmKIY0dtScxr31WnHHcqo7K+O901L9lObEfn7K8eS+u6Y1/6rmO1b3ve18YZ65dxRN/ia7fhva513WTom1v6hHaMTXXjsds6hP0Q90X885t8CgcvApPr9BkM7JeBmgmma8KPC0S5wOjYd6bKxbm0peMotLV4qL648GLpYy0C5UKic9ssDm7DdtWW25MP5bHPuc3yeoyvFAu6pvjcFuzvl/0x818zjsZsb1e2huIox7J8EMse6zo24x4fOqcxEo/7fC9tqY7Gi2yWdcqxpesq73bKcR3rxzHq82pbW4xF13TeNl1Wbcf/BXO5+EiMy3btZc9zzND80eVnl72ac11CW3H4jYlsRL9qbGYqM8R9EWeeSasI7KJBxnX6GgbGYaBmguma8MsFQpO0t7g4lotzaUvHUWjLjj586E3H7mu91sLnY+29oLq8FzvZjaLddcryqudFT2W8iOq82irjVBmds1/l9TI+L+CyJ3+0kJcx2Df24zC9jzyqf/fR7thttsYR+VZdbXE8yT8dl5vqlXXjvOG4NM7i5nGn62X9eK1rnNt+OUZly+VrhLbKe36xb5537LfnEfnoc97LT+forPnD8Zd+2VbtXvGVz2irbuybbduo9WWO5dSPlX4td5KqDLA2EZQ7GkDklBzUMNAwwcDUCONKC2fX4lvTV5SZ75jOMo6yxMFYme9YmWPfNHBPYufYgfgEl3NmoGGCQWhvKbR1l0t31bSfMxP41j5nZRlHXXFcffXVOs12gBlQ3x/CfKCurYyzfXKoNFzrAOW2XIjpDxiemoGGCYbx3Ti+/d/RcX32fxlP3c+0t9u5Jcs4yhIHvO+W92z5beCexGbrfOKB6V0z0DDBILQbhfau+w7785kfsoyjLHEwNuYzNpbQFw3ck9gldCg+wumcGGiYYBDaCG0Y6GEgyzjKEsec5lh8mf+a38D9/IMBOPoIBubFgCYYNjJABjbPgJ9hzjC3KQsZ4iCGea0zc++PBu5J7Nw7E/9gdG4MNEwwLMA9dzPn1qf4M/08k2UczSUOfWA4fsfzENPxK+rkv7/Gb6jOvq61xLWpj/HrA4dsxK8oVA5r6w3ZXOq1Bu6nn1yWmlT8hhUYeIGBhgkGoY3QhoEeBrKMoyXGYZHoOV3Hh/yd0LWCWXnSn/NWW8/lM+0buEc8Zep4YoHnKRhomGCOJ+Qp/KIN+F8SA1nG0RLjKIX2FHeNRPY7fgAAGiFJREFU58xmFMzKxfnz5zvnbpWL3+kf620an+xF8b6pnanrNXDPxDx159AezC2dgYYJpnOyXnr8+M8YHoOBLOOoJg7/sqIEnDeJNOdRQku/7qq7yv7FxPKrLqMYkxhUOW8Sa6VYLsvE+npdtu872jW+uKz8V3nFpcdPtMkv+ROP5Ytj1bW46djXSp9b41JMyqNz41zKfnzsQ+3H+PXa+dG+fJSm7Atfj/XKMjFHfW2rrbjFXDgnc93L70rfmDArE1WbUMr1/Dcpec4z1hommIMaD3/0R3+0uv/++1ff+973Vn/4h3+4+spXvrL6yU9+snrVq151UHlgrNeN9SzjqCYOCy2LOYsyH2sfRaEYkoiz8HJ5HcuWnsWO4lXldexntMsybt/2SoEXRWGfL/bVvlmo6ryFp651Hbts9NE+q67Olz7rusvUxqV2yljctu1pr3zGn1dXmRhfLBtfq5xzqPOxXnztazoX6+t12bbarWm7tLPv4xruX/SxbkLYd0C0Tz/BwHwYaJhgLppkx+hHLUq+YyNffvGLX6y++c1vrv78z/981PbOnTu3+vnPf776t3/7tyq7H/nIR9bl//Zv/3Zd/q//+q9XP/vZz1af//znq+rL/+9+97urX/7yl6vnnntudc8996zjXOIiNEY/Z7ex73E0Vn674pAY8yZ+u0SkyliIqYxfyy8LY9vwXuVUL4pJxxFFbFcZ1dWfypft2UbXtS7f1ZaEqkRjaSvGJXvRl7KsritulYnloj8tccmWY5SN6GdXTtWmfYj1YvvxtX31Obd3Vo6G2la7NW27zbnsxWSlL/NZvCsdrg2MckeDjJySg10w0DDB7IRBLR4S2v/1X/+1+sd//Mf1Xj597WtfG7W9t73tbasHH3xw9fGPf/xMu7/xG7+xFsa6g/0Xf/EX6/KXXHLJ6j//8z87RUFXv9x4441rka0F/Oabb1798z//M0I78Ty273HUxeAm52ri6BJiEnkSamqzFFtd5e3bGIJU7blt2/W+xpcoYMvyMS7ZjP52tWvxGsvZF+1bhbbsuL79vOKKK9bzkK/F/yFQWQtm1+vb21dfd72u/qptu8yfbc99X8P9izEgRObemfgHo3NjYGiCefOb37z68pe/vHrlK195PNlv4/8b3/jG1RNPPHHqjocmcAltTfKy/YY3vGH1v//7v9WCdht/+uq++tWvXv33f//3RR8i+pd/+ZfV//3f/62uvPLKta8f/OAH128ItDCVtrTgaPNi6Dh1vizbemxbtt1an/Ljz0ND42hJ+a6JQ7zrEQmzbKHnY+392rFrfHuM+5z2XaJO58V47SMWaqvLtuz0+RL9i76V5TXGom0d+w589NE+j/3oSBzjak9v3PW/c/Fxm3I+kL8xPvnW9ady0X6sF1+rro71V/ZX2XaZv65253iuhvsX/e5O5hyDwif6CgbmwcDQBFMuJOqz3/u931t99atfXT8OIYH8rW99a/1IhSd2PTKhc3pcQo9NSLBeddVVK91Rfvzxx9XcelNd2fdErUlc9t/61reunnrqqdUPf/jD1Ste8Yr15P7AAw+sJHJVR+30taH6uhutO8hPP/30uh09inLrrbcet2M//+RP/mT19a9//ZSff//3f7/24V3vetf6sZFbbrnl1AKlRen5559ffehDH1qfl8/x2EzfdNNN65y8GOp6Yf7Yxz527L/KDbX/8pe/fJ1jPeqiTTHoQ1HK/Xvf+95TtuPzpG6f/fRjS/2UIe81cUhsSWwOfRjS48w5sRiXfW0e/7qucRU3HZdzj+cJl4v29drzh9vzXtdiWZ0vfbFw1rWyvHyJtnUcy3f57ra7rrXEpXZlw/ZU14+4RNvyR+ddVvUcs/Z9c0RpP9YbytFQ27Gf7I/9n/NeXFX6N/3kUulYbQCUOxro5JQcTMlA1wQjYfztb3979f3vf38tOPWs8Te+8Y2V7nB/6lOfWgto3VHRox56vEKbJnSJXIlXPcv8gQ98YC2uH3744dVjjz22vgujDxRqk72PfvSjq8suu+xYAOvRkc997nNrYa4yXig0+WuTcJf4vvbaa3vb0AcVJYJVVgJfQll+a/L3AhD91BsBPTv9hS98YS3udSf9LW95y3HZcqGwDZ+X4P+rv/qr1Utf+tJT41Z3vBWjNj0Tft11160+/OEPHwtt56mvffW/RL8ec3nTm960fmbdgv71r3/9KdvXX3/9Sh/cnJIZ2rp4jlJfZ8hLTRwW2tpniJkYLub50HJSw/2LOSFZhwYH8cL8tgx0TTASq7oLorvCEni6wyyx/M53vnN9F0t3WN/3vvetF9l3v/vdxwLSj1zIZtx0Z1Z3iSVQtVlEy3eLV5eXSL/zzjuPxaOE9rPPPrt6//vfv27vrDZ0ly365/y4HbVtG/EZ7C996UtrF+Sjy1pQ24ZjLc/7etyrHW0ua5s17etutwS678qvDQVbpe3YLq/3MyeojzLkviYOhPZ+GMvA11xjqOH+Rd/p/Ll2In7B5lwZGJpgJA79nKT9L4Vsl4DU3eR3vOMd6+f5tCi/9rWvXT/2INGpTULR9lxfgtrn4l7n4399WiT3tVH6Z1tup0bo1j46Yttd+1IMt7SvO/Ha9IiO7pqXtsrjrvY5N+2co/7KkPOaOBDa07KVgau5x1DD/Ysx0Plz70z8g9G5MTA0wegOtp6Pfs1rXnMsIuKjI5/97GfX12VD4q98JELPJevxkttuu21d30L7Bz/4wfqxDtm3AK0V2me1Yf/86IgegdE3fridLj/LR0f0xuCnP/3pmR+GlN0f//jH68dHyn4txXBL+xbad9999+ozn/nM+s2Ocuy747atnOl5dD3SU7bP8bRzjfonQ86zxJGhL4hhujHcwP10TgEAuYaBHAw0TDBrIVF+GFJiT49qSPyJCX/IT+e0af/FL35xfU13Z/UjMHo2Wef1iIoFaK3QPqsN+acPTuoRFG3af+ITnzhup8tPf2jTH4bUV/ndd9996+fPh77e7zvf+c76eXA9g12OB4thi2PHWdO+vnlFz6zLLz0+og9CKg7b0nPbjzzyyDo+PVeuNyxl+xxPOz7VGRlyniWODH1BDNON4Qbup3MKAMg1DORgoGGC6RQSvkttAZmFi64frNFX++kbTByjRL3ePPiYfY4xsUk/bjuONmlzF3UUBxsZOKQMXH311etwK8fT4U5ylQliQeRbTWCgYEAzTMv40bds3HHHHSs9FvLJT35y9aMf/aj3rm6L3bmVLX+CXd+mwk+ws8b0cdo6jvrs7Pt8ljj2nUfaX9Zc0cD9sgIDRPoLBvbPQMMEsxbkEtp6/lmPNWjTowt6NEPPTtOf++9P+mA/fdA6jubaT1nimGt+8Ws/4/OsvDdwP88AzgqQ6/QbDOyPgYYJBiFd/G8A3O6P27nlPss4yhLH3PjAn3nPFQ3czzsQQKN/YGB+DDRMMAhthDYM9DCQZRxliYO1Zn5rzZz7pIF7EjvnjsQ3+JwjAw0TDCKrR2TNsV/xadr5Jss4yhLH2PyXn9nQr9zymY1px9jYfRrtNXCfJ+iYAF7TrzCwOwYaJhiENkIbBnoYyDKO9h2HvwZTfmjT14B+85vfHP3bfc6dO7fSL9bqF1hr1peubyHSV25+/vOfr6qvbyf67ne/u/5sy3PPPbe65557jn9Rt6Z9yuxuDVRutVXmeLeOVDpR6yzleiZs8gzHUzLQMMEwZhmzMNDDQJZxtO84LLT1PfL6sSvttX3ta18blb23ve1tqwcffHD18Y9//Ey7+qC3hLHuYA99r/7QvH3jjTeuRfaFCxfWPzKlH7t65plnjn9/YKgu13avCRq4370zdDg5hoFcDDRMMGcuSLCRiw36s74/s4yjoTj0C6Rf/vKXV6985StHmQve+MY3rp544olTYtNC2z9gpR9v0jcbPfTQQ6tLL710lHZbuX71q1+9/qal8+fPn2pfP4yl79a/8sor1+c/+MEPrt8Q6CfqyzbO+gGrsnzLsXPmH7RqqUvZF8b4EPdFjuonhaLiRVBwnVzCwGEw0DDBME/03M1krBzGWBnq5yzjaCgOCbpHH310FYVk+Uux3/rWt9a/YuofsNIjEzqnxyX8C6xXXXXVSneUH3/8cTW33nR3V/YtGi203/rWt66eeuqp1Q9/+MPVK17xipXOP/DAA+tff/Ud4b421F+6G33zzTevf2FVDelRFP3olNuxn/5F2+infyn2Xe961/oxk1tuueXUHChh+/zzz69/4VZtybd4bF5uuumm41+qlQ9606DfIbD/KjfU/stf/vLVV7/61bUPjkG/Fqvcv/e97z1l+8knnzzVP/aB/fAcpbxW5mjYUKWR2sYox6ILAwkYaJhg6O8E/c06sJt1Mss46opDwvjb3/726vvf//5a7OlZ42984xsr3eH+1Kc+tRbQEuB61EOPV2iTgJXI1Q896VnmD3zgA2tx/fDDD68ee+yxlZ6R1gcKtcneRz/60dVll112LID1yMjnPve59Z1klbEglpjVJkEs8X3ttdf2tvGqV71qLYJVVt/9L6Esv6Ogj37qjYAeEfnCF76wFve6k/6Wt7zl2KfyjrHFus9L8Ot3Bl760peemit1x1sxatMz4dddd93qwx/+8LHQdp762teYlejXYy5vetOb1s+sW9C//vWvP2X7+uuvX+mDm4zztnGuvqnMWZvhSqO1jVOORRgGFshAwwRD/y6wf5nnp1kXs4yjrjg+9KEPrXSn9Omnn17fsdUdZonld77znSs9TqG7xO973/vW88O73/3uYwHpRy5kM276EKLuEkugarOIFqsWry4vkX7nnXcei0cJ7WeffXb1/ve/f93eWW2U/nk8uB21bRvxGewvfelLaxfko8taUNuGYy3P+3rcqx1tLmubNe3rbrcEuvIfN9sqbcd2eV03/pXXylzVGaw0Vtso5Vh8YWDBDDRMMPTzgvuZeX+362OWcTQUh8Rh+ehIKWS7BKTuJr/jHe9YP9Kgx05e+9rXrh97kFDUJqFoPl1fgtrn4l7n4+MRFsl9bZT+2ZbbqRG6tY+O2HbXvhTDLe3rTrw2PT6iu+alrfK4q33ODY9/5bcyR8OGKo3UNkY5Fl0YSMBAwwRDfyfob9aB3ayTWcbRUBy6g63no1/zmtcczwXx0ZHPfvaz6+uyIfFXPhKh55L1eMltt922rm+h/YMf/GD9WIfsW4DWCu2z2rB/fnREj8DoGz/cTpef5aMjemPw05/+dH33Po6f8sOQsvvjH/94/fhILKfXpRhuad9C++6771595jOfWb/ZUY7LO9rKmZ5H1yM9ZfscD4975bMyR8OGKo3UNkY5Fl0YSMBAwwRDfyfob9aB3ayTWcZRaxzlhyEl9vQoiYSlWPOH/HROm/Zf/OIX19d0d/b+++9fP+Ot83pExQK0Vmif1Yb8kyDWIyjatP/EJz5x3E6Xn/7Qpj8Meckll6zuu+++M7/e7zvf+c762XE9g12OsyGhXcZQtq9vXtEz6zqvx0f0QUjFYaGt57YfeeSRdXx6rlxvWMr2OR4e90peZY6GDVUaqW2Mciy6MJCAgYYJhv5O0N+sA7tZJ7OMo23j8F1qC9gsvHX9YI2+2k/fYOIYJer15sHH7Hcz1naR1wbulxPULhKFTfofBtoZaJhgWEAQ2jDQw0CWcdQah75l44477lh/Xd0nP/nJ1Y9+9KPeu7pLnp/Ln2DXt6nwE+zt681cGWjgPk/Qc+0M/IKxbAw0TDCIrB6RlY0J4mmf57KMo9Y4JLT1/LMea9CmRxf0aIaenYajdo7I2X5y1sD9fhwEDPIOA8tloGGCYeFEaMNADwNZxlGWOFiTlrsm7aPvGrgnsfvoINqEuyUz0DDBILJ6RNaS+x/fx5m/soyjLHHA9ThcH0oeG7gnsYcCBXHC+lgMNEwwCG2ENgz0MJBlHGWJY6z5ce52Lr300vVPuvsbSKbwV23pZ+TV9hTtTdFGA/eIjyk6hDbgLBMDDRNMmkk1U/8RyzzmoyzjaNdx6Gv7/I0k8fUYHOvHcPRjNnHLJgjLPEn0ll+FqGNtil0/2FNeL21sciybteLeX9kon/Rd4OWPHm3S/th15FulzXlMOJXO1gZFuZ47KOQZ3sdgoGGCYSwyFmGgh4Es42jXcUigWWiPMX9FGxLaEnESdj6vtuIvSfp8ln0peBX7hQsXju82K/5dCO0ugd+X0+ij/ENo90wifQnkPGIPBpbNgBZWNjJABrbPQIa5UFnYZRxTC23Fsss2x86VhKjuQtfY7XpjUQrgMYR2l09qW3fMtZev8lnlSr/1eImEv69pP4bQ7muvbL/2uIH7ZS/4tQmhHP0MAzAAAzAAA+MzUCs4JOC8PfPMM6eElISV/ryprPsqit74Wtd17M2PfEiYyb4329J5taFfSdSm813CU3YlPm2vbEdt2rcYk2z60YjSB513+35OuXxW2seyo81+W6BKKHqzb7IbN9cpz0e/omjt8l/nYowxx+Wd/q5rZdv2KQpoxSRbvuZ8+rxjUpwf+9jHTgntMrfRRte1Mq9lDG67dS8fK+uMP+gqG651kHJHg56ckgMYgAEYgIE5MtAgOI7XMokxizmLI4tBiy0fq5zFVHytc7bRlxeLVO3djm2pjs6Xj47ovNq2mFX5WMc+RNux/T6bal9CX8JP5S0AY5x+Ha/JXhSl8Zp9jXlQO1FM61j1tS996Kof8xpfq6yOnRcdxz9d01+XTZ2T34pfPsR65euynMo7njK3zo3zFm3pmnzVvrQZy236uoH704natEHqkUcYgAEYgAEYODwGugSHhI83iy/t42bBFoWU+YmizcJW1/y6FJuup73sxTvavnve1U4p3GxH/su/K664Yr2Pfuu1ha322hyj6ruufLQ9+9UntC0Y18bCP7Lb5WPMj9qzP2pH1+KxzulY5ZSD6IOu9dXvyrF8sXi13eDucbulTZWtFbtludhvsmtuZFN/MRd9fV/adN1t9oq7sv7hTQqVialNIOVehJ28MpZgAAZg4PAYqBEcpUCKx1FImZ8oniQSdaxrft0lAnW9FKXxuEtkxutuu6adWFav5Z82xRVji+XK9mMMfX6ovq5Fcev2nBO1F4W1zsdjldexynXZ6qsf/XMcsX7ZTjwubap+rdgty0U+ZLdPaJc5jMelTcezzb6G+xftH96ksE1iqQsvMAADMAADMHDCQI3giCJMuZPws2CSkNJdZ4koXZNA0qMOPlZZ1Xc9vy5t6noUZTqWjXhHu7ybG8WYyruN+Byv2rGvLtO1Vzn9ddlU+dK3Mm7Fqb/Stuy1CO2udvzoSJdvylFsN+Y1vpZfOnYuYr9YlNtOaVN1u+IoY9VxKYpjPKX/OjYrsZzsxL4vbXa123quhvsXbZ4MltZGKE/uYAAGYAAGYOCwGagRHBZiKqtNH0i06JVA0mv9eZOgM1dR0MXXpU0LQNX1Zrtqw+2onm1bqLm89rbjMtqr3bhJxJV1ozjX9bjpuLSjduSfr5Xx+A2C2lFZ7e2TYnSOoh8+19e+fXCbOtZrC2Qdy0Y8jrHHGGO78lV96nrxWvTJufV1X3Nc2isPyov6S8fa+xltH6s9b9GGXnuLfa96vhZj0PlN/9ROZd3NG6lsoNYRym3R4fQFHMMADMAADOyDgQbB0bnOdwngfcRxKG1KWFvwThmzRHgU+FO2vYu2GrhnYtpFB2ATrmAABmAABg6BgQbBgdCewQ013zmfUvTuS9zvcvw1cM9EuMuOwDZ8wQAMwAAMZGagQXAgtGcgtDOzOGVsDdwzAU7ZMbQFbzAAAzAAA5kYaBAcnUI7Uy6I5XDGdgP3h5MUBgB9DQMwAAMwAAPjMtAgOBDa3NFOw0AD9+MOOCYw8gkDMAADMAADh8NAg+BII7Lg+3D47uvrBu5JVl8SOQ8bMAADMAADMDDMQIPgQGhzRzsNAw3cDw8gJhjyAwMwAAMwAAMw0MdAg+BII7L6csH5wxknDdwfTlIYAPQ1DMAADMAADIzLQIPgQGhzRzsNAw3cjzvgmMDIJwzAAAzAAAwcDgMNgiONyILvw+G7r68buCdZfUnkPGzAAAzAAAzAwDADDYIDoc0d7TQMNHA/PICYYMgPDMAADMAADMBAHwMNgiONyOrLBecPZ5w0cH84SWEA0NcwAAMwAAMwMC4DDYIDoc0d7TQMNHA/7oBjAiOfMAADMAADMHA4DDQIjjQiC74Ph+++vm7gnmT1JZHzsAEDMAADMAADwww0CA6ENne00zDQwP3wAGKCIT8wAAMwAAMwAAN9DDQIjjQiqy8XnD+ccdLA/eEkhQFAX8MADMAADMDAuAw0CA6ENne00zDQwP24A44JjHzCAAzAAAzAwOEw0CA40ogs+D4cvvv6uoF7ktWXRM7DBgzAAAzAAAwMM9AgOBDa3NFOw0AD98MDiAmG/MAADMAADMAADPQx0CA40oisvlxw/nDGSQP3h5MUBgB9DQMwAAMwAAPjMtAgOBDa3NFOw0AD9+MOOCYw8gkDMAADMAADh8NAg+BII7Lg+3D47uvrBu5JVl8SOQ8bMAADMAADMDDMQIPgQGhzRzsNAw3cDw8gJhjyAwMwAAMwAAMw0MeABAcbGTjEDPSNieI8k0eRkDTvtogLtmEABmAABmAABmBgrwzstXFELf+NBAMwAAMwAAMwAAMwkJUBhDbv9GAABmAABmAABmAABmBgBwyQ1B0kNeu7MuLijgMMwAAMwAAMwAAM1DOA0EZowwAMwAAMwAAMwAAMwMAOGCCpO0gq7/Tq3+mRK3IFAzAAAzAAAzCQlQGENkIbBmAABmAABmAABmAABnbAAEndQVKzvisjLu44wAAMwAAMwAAMwEA9AwhthDYMwAAMwAAMwAAMwAAM7IABkrqDpPJOr/6dHrkiVzAAAzAAAzAAA1kZQGgjtGEABmAABmAABmAABmBgbAb+P+IW5VwkZ78aAAAAAElFTkSuQmCC;" vertex="1" parent="1">
          <mxGeometry x="60" y="10" width="730" height="335" as="geometry" />
        </mxCell>
        <mxCell id="9dg1Qpggz0v6w3t59ocL-22" value="Súper Mc Chombo 1&lt;i&gt;&amp;nbsp;&lt;/i&gt;:&amp;nbsp;&lt;br&gt;&lt;b&gt;Combo&lt;/b&gt;" style="shape=umlLifeline;perimeter=lifelinePerimeter;whiteSpace=wrap;html=1;container=0;dropTarget=0;collapsible=0;recursiveResize=0;outlineConnect=0;portConstraint=eastwest;newEdgeStyle={&quot;edgeStyle&quot;:&quot;elbowEdgeStyle&quot;,&quot;elbow&quot;:&quot;vertical&quot;,&quot;curved&quot;:0,&quot;rounded&quot;:0};" vertex="1" parent="1">
          <mxGeometry x="257" y="1560" width="131" height="320" as="geometry" />
        </mxCell>
        <mxCell id="9dg1Qpggz0v6w3t59ocL-23" value="" style="html=1;points=[];perimeter=orthogonalPerimeter;outlineConnect=0;targetShapes=umlLifeline;portConstraint=eastwest;newEdgeStyle={&quot;edgeStyle&quot;:&quot;elbowEdgeStyle&quot;,&quot;elbow&quot;:&quot;vertical&quot;,&quot;curved&quot;:0,&quot;rounded&quot;:0};" vertex="1" parent="9dg1Qpggz0v6w3t59ocL-22">
          <mxGeometry x="60.5" y="70" width="10" height="150" as="geometry" />
        </mxCell>
        <mxCell id="9dg1Qpggz0v6w3t59ocL-24" value="" style="html=1;verticalAlign=bottom;startArrow=oval;endArrow=block;startSize=8;edgeStyle=elbowEdgeStyle;elbow=vertical;curved=0;rounded=0;" edge="1" parent="9dg1Qpggz0v6w3t59ocL-22" target="9dg1Qpggz0v6w3t59ocL-23">
          <mxGeometry relative="1" as="geometry">
            <mxPoint x="-29" y="70" as="sourcePoint" />
          </mxGeometry>
        </mxCell>
        <mxCell id="9dg1Qpggz0v6w3t59ocL-25" value="+getPrecio()" style="edgeLabel;html=1;align=center;verticalAlign=middle;resizable=0;points=[];" connectable="0" vertex="1" parent="9dg1Qpggz0v6w3t59ocL-24">
          <mxGeometry x="-0.0667" y="7" relative="1" as="geometry">
            <mxPoint as="offset" />
          </mxGeometry>
        </mxCell>
        <mxCell id="9dg1Qpggz0v6w3t59ocL-26" value="" style="html=1;points=[[0,0,0,0,5],[0,1,0,0,-5],[1,0,0,0,5],[1,1,0,0,-5]];perimeter=orthogonalPerimeter;outlineConnect=0;targetShapes=umlLifeline;portConstraint=eastwest;newEdgeStyle={&quot;curved&quot;:0,&quot;rounded&quot;:0};" vertex="1" parent="9dg1Qpggz0v6w3t59ocL-22">
          <mxGeometry x="60.5" y="260" width="10" height="40" as="geometry" />
        </mxCell>
        <mxCell id="9dg1Qpggz0v6w3t59ocL-27" value="3-&amp;nbsp;&lt;br&gt;&lt;div style=&quot;&quot;&gt;-aplicarDescuento()&lt;/div&gt;" style="html=1;align=left;spacingLeft=2;endArrow=block;rounded=0;edgeStyle=orthogonalEdgeStyle;curved=0;rounded=0;exitX=0.5;exitY=0.698;exitDx=0;exitDy=0;exitPerimeter=0;" edge="1" parent="9dg1Qpggz0v6w3t59ocL-22" target="9dg1Qpggz0v6w3t59ocL-26">
          <mxGeometry relative="1" as="geometry">
            <mxPoint x="65.49999999999977" y="240.05000000000024" as="sourcePoint" />
            <Array as="points">
              <mxPoint x="90" y="240" />
              <mxPoint x="90" y="280" />
            </Array>
          </mxGeometry>
        </mxCell>
        <mxCell id="9dg1Qpggz0v6w3t59ocL-28" value="&lt;i style=&quot;border-color: var(--border-color);&quot;&gt;Mc Chombo 1&amp;nbsp;&lt;/i&gt;:&amp;nbsp;&lt;br style=&quot;border-color: var(--border-color);&quot;&gt;&lt;b style=&quot;border-color: var(--border-color);&quot;&gt;Combo&lt;/b&gt;" style="shape=umlLifeline;perimeter=lifelinePerimeter;whiteSpace=wrap;html=1;container=0;dropTarget=0;collapsible=0;recursiveResize=0;outlineConnect=0;portConstraint=eastwest;newEdgeStyle={&quot;edgeStyle&quot;:&quot;elbowEdgeStyle&quot;,&quot;elbow&quot;:&quot;vertical&quot;,&quot;curved&quot;:0,&quot;rounded&quot;:0};" vertex="1" parent="1">
          <mxGeometry x="408" y="1560" width="100" height="320" as="geometry" />
        </mxCell>
        <mxCell id="9dg1Qpggz0v6w3t59ocL-29" value="" style="html=1;points=[];perimeter=orthogonalPerimeter;outlineConnect=0;targetShapes=umlLifeline;portConstraint=eastwest;newEdgeStyle={&quot;edgeStyle&quot;:&quot;elbowEdgeStyle&quot;,&quot;elbow&quot;:&quot;vertical&quot;,&quot;curved&quot;:0,&quot;rounded&quot;:0};" vertex="1" parent="9dg1Qpggz0v6w3t59ocL-28">
          <mxGeometry x="45" y="80" width="10" height="50" as="geometry" />
        </mxCell>
        <mxCell id="9dg1Qpggz0v6w3t59ocL-30" value="1-&lt;br&gt;+getPrecio()" style="html=1;verticalAlign=bottom;endArrow=block;edgeStyle=elbowEdgeStyle;elbow=vertical;curved=0;rounded=0;" edge="1" parent="1" source="9dg1Qpggz0v6w3t59ocL-23" target="9dg1Qpggz0v6w3t59ocL-29">
          <mxGeometry relative="1" as="geometry">
            <mxPoint x="412" y="1650" as="sourcePoint" />
            <Array as="points">
              <mxPoint x="398" y="1650" />
            </Array>
            <mxPoint as="offset" />
          </mxGeometry>
        </mxCell>
        <mxCell id="9dg1Qpggz0v6w3t59ocL-31" value="&lt;i&gt;precioMcChombo1&lt;/i&gt;" style="html=1;verticalAlign=bottom;endArrow=open;dashed=1;endSize=8;edgeStyle=elbowEdgeStyle;elbow=vertical;curved=0;rounded=0;" edge="1" parent="1" source="9dg1Qpggz0v6w3t59ocL-28" target="9dg1Qpggz0v6w3t59ocL-23">
          <mxGeometry x="-0.0641" relative="1" as="geometry">
            <mxPoint x="308" y="1680" as="targetPoint" />
            <Array as="points">
              <mxPoint x="403" y="1680" />
            </Array>
            <mxPoint x="483" y="1680" as="sourcePoint" />
            <mxPoint as="offset" />
          </mxGeometry>
        </mxCell>
        <mxCell id="9dg1Qpggz0v6w3t59ocL-32" value="Se pide realizar las modificaciones necesarias al diagrama realizado anteriormente para soportar este&lt;br/&gt;nuevo escenario, y el diagrama de secuencias para imprimir el ticket de la compra de un “Súper Mc&lt;br/&gt;Chombo 1”" style="text;html=1;strokeColor=none;fillColor=none;align=center;verticalAlign=middle;whiteSpace=wrap;rounded=0;" vertex="1" parent="1">
          <mxGeometry x="140" y="1470" width="670" height="60" as="geometry" />
        </mxCell>
        <mxCell id="9dg1Qpggz0v6w3t59ocL-33" value="&lt;b&gt;ENUNCIADO:&lt;/b&gt;" style="text;html=1;strokeColor=none;fillColor=none;align=center;verticalAlign=middle;whiteSpace=wrap;rounded=0;" vertex="1" parent="1">
          <mxGeometry x="40" y="1470" width="100" height="30" as="geometry" />
        </mxCell>
        <mxCell id="9dg1Qpggz0v6w3t59ocL-34" value="&lt;i style=&quot;border-color: var(--border-color);&quot;&gt;Mc Chombo 2&amp;nbsp;&lt;/i&gt;:&amp;nbsp;&lt;br style=&quot;border-color: var(--border-color);&quot;&gt;&lt;b style=&quot;border-color: var(--border-color);&quot;&gt;Combo&lt;/b&gt;" style="shape=umlLifeline;perimeter=lifelinePerimeter;whiteSpace=wrap;html=1;container=0;dropTarget=0;collapsible=0;recursiveResize=0;outlineConnect=0;portConstraint=eastwest;newEdgeStyle={&quot;edgeStyle&quot;:&quot;elbowEdgeStyle&quot;,&quot;elbow&quot;:&quot;vertical&quot;,&quot;curved&quot;:0,&quot;rounded&quot;:0};" vertex="1" parent="1">
          <mxGeometry x="522" y="1560" width="100" height="320" as="geometry" />
        </mxCell>
        <mxCell id="9dg1Qpggz0v6w3t59ocL-35" value="" style="html=1;points=[];perimeter=orthogonalPerimeter;outlineConnect=0;targetShapes=umlLifeline;portConstraint=eastwest;newEdgeStyle={&quot;edgeStyle&quot;:&quot;elbowEdgeStyle&quot;,&quot;elbow&quot;:&quot;vertical&quot;,&quot;curved&quot;:0,&quot;rounded&quot;:0};" vertex="1" parent="9dg1Qpggz0v6w3t59ocL-34">
          <mxGeometry x="45" y="160" width="10" height="50" as="geometry" />
        </mxCell>
        <mxCell id="9dg1Qpggz0v6w3t59ocL-38" value="2-&lt;br&gt;+getPrecio()" style="html=1;verticalAlign=bottom;endArrow=block;edgeStyle=elbowEdgeStyle;elbow=vertical;curved=0;rounded=0;" edge="1" parent="1" source="9dg1Qpggz0v6w3t59ocL-23" target="9dg1Qpggz0v6w3t59ocL-35">
          <mxGeometry relative="1" as="geometry">
            <mxPoint x="318" y="1730" as="sourcePoint" />
            <Array as="points">
              <mxPoint x="414" y="1730" />
            </Array>
            <mxPoint x="673" y="1730" as="targetPoint" />
            <mxPoint as="offset" />
          </mxGeometry>
        </mxCell>
        <mxCell id="9dg1Qpggz0v6w3t59ocL-39" value="&lt;i style=&quot;border-color: var(--border-color);&quot;&gt;2precioMcChombo1&lt;/i&gt;" style="html=1;verticalAlign=bottom;endArrow=open;dashed=1;endSize=8;edgeStyle=elbowEdgeStyle;elbow=vertical;curved=0;rounded=0;" edge="1" parent="1" source="9dg1Qpggz0v6w3t59ocL-35" target="9dg1Qpggz0v6w3t59ocL-23">
          <mxGeometry x="-0.0643" relative="1" as="geometry">
            <mxPoint x="309.5" y="1760" as="targetPoint" />
            <Array as="points">
              <mxPoint x="410.5" y="1760" />
            </Array>
            <mxPoint x="664.5" y="1760" as="sourcePoint" />
            <mxPoint as="offset" />
          </mxGeometry>
        </mxCell>
        <mxCell id="9dg1Qpggz0v6w3t59ocL-40" value="&lt;i&gt;return&lt;br&gt;precioTotal&lt;/i&gt;" style="html=1;verticalAlign=bottom;endArrow=open;dashed=1;endSize=8;curved=0;rounded=0;" edge="1" parent="1">
          <mxGeometry x="-0.1299" relative="1" as="geometry">
            <mxPoint x="322" y="1870" as="sourcePoint" />
            <mxPoint x="228" y="1870" as="targetPoint" />
            <mxPoint as="offset" />
          </mxGeometry>
        </mxCell>
        <mxCell id="9dg1Qpggz0v6w3t59ocL-43" value="" style="shape=image;verticalLabelPosition=bottom;labelBackgroundColor=default;verticalAlign=top;aspect=fixed;imageAspect=0;image=data:image/png,iVBORw0KGgoAAAANSUhEUgAAAtoAAAFPCAYAAABzrWleAAAgAElEQVR4Ae2dXcg1V3n+7Z/Sk9KztkdCz1IpxZNSKBSh5KC0SAkeCCIGRBBUFGqDgVowIahvG5QGP7CBxIDfIGlJtEJJNDUYC+obP0hqan2ToGnUJE1smlQTE/f/uXZyPc/9rHdmnrX2nj175t6/geedPTNr3eu+7/Vba1173tl7v+QlL3nJij9yAAMwAAMwAAMwAAMwAAOjMzC6QYQ7b15gAAZgAAZgAAZgAAZggHcuvNGAARiAARiAARiAARiAgZ0wsBOjvIPhXSwMwAAMwAAMwAAMwMChM4DQ5h0cDMAADMAADMAADMAADOyAAZK6g6Qe+rs34ucOBgzAAAzAAAzAAAwgMnmjAQMwAAMwAAMwAAMwAAM7YWAnRnkHw7tYGIABGIABGIABGICBQ2cAoc07OBiAARiAARiAARiAARjYAQMkdQdJPfR3b8TPHQwYgAEYgAEYgAEYQGTyRgMGYAAGYAAGYAAGYAAGdsLATozyDoZ3sTAAAzAAAzAAAzAAA4fOAEKbd3AwAAMwAAMwAAMwAAMwsAMG6pK6YiMDZIAM7DADO5jcDv0uCvFzJxEGYAAG9s9AvdBmIazLFXkiTzDQxoD0Ozlryxn5Il8wAAMwsAgG6pxkIazLE9CTJxhoZ4D5pT1ncEbOYAAGYGARDNQ5yUJYlyegJ08w0M4A80t7zuCMnMEADMDAIhioc5KFsC5PQE+eYKCdAeaX9pzBGTmDARiAgUUwUOckC2FdnoCePMFAOwPML+05gzNyBgMwAAOLYKDOSRbCujwBPXmCgXYGmF/acwZn5AwGYAAGFsFAnZMshHV5AnryBAPtDDC/tOcMzsgZDMAADCyCgTonWQjr8rRE6G+//XZ17/F27733rr9qTXtdW2JM+LwsXgUffbasPqO/6C8YgAEYqGKgqtBahJHQulwtKU833HDD6qGHHlpdeumlCJ39f6n9wfYBQjvf3LKkeRBf4Q8GYGCHDNQll4WwLk877KidiDDdsfYd7E18l1DnrndONjbhYdM6zC/bMbS+E8I/ZKAhA5uOVeptN1bJ30Hmry5ojV8AqcvVkvJ0zTXXrJ555pmVBHPpd3x0RNfjJnGtv7jZhup5iyJer++66651e7r+5JNPrttV+z6+/PLL135or+veop3ST46Xz6X6mX7cvB/J3+a5O0Tu4AVeDpH7PcZcBxwDsy5Pe+zIjYVKFLVR0Oq1xLQeK7lw4cJKoryMz4Lb58tj29B1vY6PqXQdq75teT/UvsuwXzafzC/b9R/52y5/hzZ/wAu8HBrze463DjgGZl2e9tyZF4nUFn8kaCWEJYBVL4pkCWBtvma7UVi7/rpg+Md1oj3Vj3V97LJR/NuU75i7bfZ5mFQf05+b9yf52zx3h8gdvMDLIXK/x5jrgGNg1uVpjx05ilDRXWvdvZZoLoWxYvMjJL7zHMWyhXafIJa9eC3WlW0dq0xppzxeeo7x/+KxxPxycU5aOCF/2+WvJdcZysILvGTgeEEx1AHHwKzL04I6vlOYW+wqji6hrfMSy7qm111iOT4eEvNRK7R1N/vRRx89flRl6DnyaJ/Xy2WU+WW7viN/2+Xv0OYOeIGXQ2N+z/HWAcfArMvTnjuzUzwP+SShHLcoki20fUfZ5fThRT+vbRGsa75brXpxi+f9Wj51iXQLeJXzJp90lz3WHYqJa8tjVX1Nv23eb+Rv89wdInfwAi+HyP0eY64DjoFZl6c9diRC5Ui8k/9l5oD5Zbt+I3/b5e/Q5g14gZe5Mq8be31fvjBXnyv8qgOOgVmXp4qEIwYRxDBQMMD8st38srT8xQ8762s8dbzruTO2qf9N23V7c7a/NF7mnEt8227uKvOH0C4WxzJBHI8LHPkkn4fCAAv/dqwvMX8SvnosbAqRrXFUPqp2KGOrK84l8tIVB+e2mzfmmL8xhLYeaT1//vyc3kzXdRQDsy5PcwQXn+i7uTPA/LIdo0vMX6vQ1sLpz4ZswnP5YexNbGSps0ResuQ+QxwaS+WPz/kNs8aoHv3QdW3+36P42a3yf7FUxpu+CEFvwD3Wy3Grz2rFz5LFz3Pp82N33323Ta33bj+W0wV/5qv8DFrp20j9VTfBy7GRGsQO/zMAAzBwigHml7p5uG8OXmL+SqGtBVFiOv4irBbDvoWwPO8F1XZvvfVWpWX14IMPrhfm9cHRP15ItZD7V2l1zfWV4/KaF+W4WNtOX5/M+bzinbN/+LbdfLDr/En8RrGrseNjj504nvRadexXWV7i2kJdYyx+4cKQ0FZbsa7ty0ZsryynY41f7cuytjHyvq5DNTDZyAAZIANjZ+Dqq69emxx5Yjue1A/BrhI45zi90MYFz4LYC6zKRPGqBdCLd9d/J8cF2KJbdWRPduJCq9zE8mWuoi96Hb9e1GXlu39jQOfs3xVXXHH84S3H6Tpz3c+dl7nm7RD98ngSMx6PGkti3fmI4yeOcV2PY7OrfDlmyrFejluPO5Ur69q+ysTx31XOdh1fFPe2M+K+XmiP2OhxB2GzLv/kiTxlZoCF/zTfV1111erKK6+snifnnD8vcuUCHBdnse1y5jxeLxdfL46KO26yoWtdQtkLq+3Ln3hH2wttXMhd1v7FtvTabwyimCjjiDbm8lq+1/giBvVGuKYsZU6P4cz50FgS544xjtXyDWkcG13ly/FSjvVy3MbxWda1/Rah7Tr202Pa50fa18FROzBHcuq4A7FX1z/kiTwtmQHml9P8vuxlL1vdcsstq6985SurP/7jPz5zPpxr/rx4eWGOi1hcnMWuFs2+xbtcfPvEtOyUdj0u4oJd1o/HcSF3XfsnG/GcXztOxxDjdJk57c/iRcyJPTH4u7/7u50xzykefDk9f+w6HxoHvruttsS9j0uh7etx7MTyGm9xvKi+jrVXXdWL80JsW2W2fXQk5qqcZ+K1LV/XddBZA3NLJxjIR0CRQ3JwqAwwv3Sz/4Y3vGG9kPzd3/3d6ld+5Vd654i5508LpRbIuDCWglhl4oIar3ctgLKnv3LMxHrxmspqUde56IeOdd53tKPojvVVJwoAX4u+OU5fm+u+jxcxdu21166ZE3tz9R+/uueLqfKisXTWhyE1LqI/quMtCmuV0bjxJuEs0a7xpmvax/95UrvxEa5YN45htaHNc4rGeNw8F5Tnu+aUGMeGr+s6TA5u2AD1jmAhd+QABvoZYH7pz81v/uZvrm688cbVfffdt7rssss655Kl5U9i1guhF10tiF4UNVZKwewF1eW1kGtB9hYXWZ1X/TjmotDWedtTfS3c+vPiXi6+Ey/Kp/yOMYz1WjGXtsSWGBNrYq68znH/GD203JRj6dDi3yDeOni6BuYGjTF4Ed0wAAMXMcD8cvY8PCSEyN/Z+WO9OslR5KXmjRy5O8kduRj+YDH56WSl8yQLIWLoIgYYQHVjhTy15yku/OSvP399/7VP/vpzBk8X58a81D6aRA4vzuEh54Q72s081FXwwDxkuIi9jhXyRJ5aGWB+aWMmfljt93//95U+3hhzc6SaAfHS8mHb1vFM+bbxTL7S56suQCbyujwxYMgTDLQzoPnF36et13Hr+3oxyr+QpQceeGD9Au7auTvUnAmY+++/f80N/5CBuWbgjjvuqH7zOPOxXDc5qSNmHgj+cUcHBhbKAPNL3TzsOfgv//Iv198Mcf31169+53d+R+mD/YWy7z6dci9exI6+4UEsTdk2bbWN9UPOV6J5ra7TEwXMpMKCBAMzY4D5pW4eft3rXrf693//99XNN9+8+oM/+INjjslfXf4OWbTE2M2LGBJLYkpsxTK8hql9M2BO9+3HCO3XwZQoYCaTmYmsESCmTxfep8wvw/Pwn/3Zn63uvPPO9Z9el2NmrPyVX5knu/7KPe39umx/bsfl1/P5KwHn4mf87u3Sp6FrZdlNj0tezuJr03aoNzyuyc9wfkpOF5yv4UAdWKKAL1qkHCP7OhbIE3kamwHml26mau84jpW/8rurYz8v6ZsG5v6mYCjPQ9dif2zzuo+Xvv8xOaut+AbN3zl+Vh2ud4958nKSlz5OF5ijk6CGnE8UMEJ74Xc/hzjlWt14nluemF9O95ueu255hnas/OkHW+KvrpkTiT89z+sfdPH5Kfdq+/z581Xz91hvCiTYdyEcZdM/WV3mcOhaWXbT47N4KT8DMNSORbZy5de7yNmQD1w7PX9kycdZnC4ozroOShRw1US9oA4kHt44LJ4B5pfT87C+UeU973nP6td//der+nas/EkgSaSW818pwCWqvOm1ykuMq65+IlmbHtd4+9vffvzrjVFYqqyuu5yOZUO2br311uNrrhPbi78AaRuyY3E39OhFtKN25K/KWyCuHTr6R4JebXvT63Pnzq3P2VftdV57/cXY7UtfezqvNzRuQ3v54Bzoul5Hvxy3zm/7p7jOsiH2xGDft/64fsmGYo/xuBz77fvt0HJYw+lCclLX+YkCPnOCWUjHEccICw59XTf+d50n5pfT/fBrv/ZrTeN7rPxJLMbNgi8KcJ3zM88SWbrTLaGpMtpcR7YsDnXdd8T1WvVjOb22qLTtWMfXLGBtw8fau558UrvefD6WsT0LbQlDvY6cx9h0fkhQyrY2x6Tyfe3pWsyNfVF5X9Nrn7dfsu3XKrfNn3ytrX8Wi/I1+lXmrasd9Z9yrjc03hDn2/VpV56Xfq6F05nHWte5iQKunmBm3nHEseViQ//Wjf0p8sT8sl1fjJE/CzsLvtjvElJRDLuMzlkgRSFY2rKw0l51XScKZr22GFfbUbDF+rpWirt4vbym8qU/OqeYVLYU0LrW1UaMT9d1rD+/jmJzqL0Ys9uyLzEHMX7bc3uut+l+DF7cdpmX2BcuU+6dA8fj+NQfZVmOt5sblpy/MTndcx7qOjFRwAzkFxeSPYNHP9APxwwwv9TNw31jdoz8RZEX24kiyAJJ7WmzuIxlVLcUWxJQFtcSV958x1t1Yhkf234phmXDIs1lo/14rcufGKvadTsq67+yDYthXY/xxteuW8Yf24sCWuX7rsmvuOnY9rfdy+62Nly/zF8Zu8vFfYzZ58t8+zz7EyYPLRdjcrrn3NV1YqKAR5tg9txxxBEWRfqibhzPNU/ML9v13xj5K8WsWYnCKb72de1L4VTaiiIqvo42dD4K3lguvladWLYUulEQ2370z+UtzCUU/drlVUbPUCsOnXMdi1214UdSunJyVnuuK9uy5bijaI2v7ddY+zF4sS9l/sq+d7m478pZ2cexPK+3mx+Wmr8xOd1zDuo6MFHACNSjyX3P0NE+fXCKAeaX7cbkGPmTYIqbxWApnGI535Euy5SiKYpfi1a3ZZFZlolC123ap9KG2tOcVgrkOM/Jvjb5rA9Cxm8w8TVdj/7EY7XhLX6Qsozdbdpm2Z7sdH3gU/W68uY2yzcDbmeTvWxuUq+rTnxToeuKwTnsKq9zCO3txntfXrOdH5PTPeemrsM92NmTATJABsbMgL7VQNueJ8JFt0/+6tYxGHshT2Pz4jdCsus3Q8q1BLffIKiM35ghtOG1ZiyOzWlNmzsqU9fhiQJe9IK6IwjIydGiQG73lwPml+1yT/62y9+hjX14gZclMJ+I0zrgEgWMoEJUwsDMGGB+qZuH+xZH8rdd/vrymvU8vMDLEthOxGkdcIkCRmTNTGQtYcDjY908sWmemF+2yy/52y5/m3K71HrwAi9LYDcRp3XAJQoYoY3QhoGZMcD8UjcP9y2O5G+7/PXlNet5eIGXJbCdiNM64BIFPCiy9IENf3hjCSDi4zC/+jCOPgVPnobztO/8HMr8sqs8K39sZKAmA3z4eN5z4a7miCXaFc9L9LvD5zroNglYAkdb/BRyhwOzSWT51VD6ZLR8j5tFeM1XGM01VvdLjEtvMObmr0Ryn1/6Si3/9POQ312fbh8q79yo3++5554zv6ZqyBbX6uYW5Ukb+arPV5kr8rd57spcHsIxvMDLEjhPxGkdcK0BtwqcOXR6+X2oiiH+JHD0celC+6zvOY2x7uv1GEJbvg/ZibGVzC65j2NcS3jdOr8sIaYpfSR/devYlH0y57bgBV7mzKd9S8RpHXBDAZcCVUnqOufk1e51N1Nip7b8tuVKYbUUoa078RKT8rcmB2WcNXX6yuhHH9TXfde3OT8kkNVmzR1ttS+OZEuvh3JVMjtGnoba2yY32eoOzS/ZYt1FPOSvbh3bRe6XaBNe4GUJ3CbitA64oYBLgSJhEzeLZYkdb+XjJPGaHs+QgIubRbdtCZIotnw3Ur+4pc3CKtqNbcrOXXfdtX4e21+ir7LRfovQju24bfmo12pHbWiTD4olHkeBXGvHPquubHrzoy3KjdvQtRiXXkcfPeBKW7GMBKNse3vwwQdPHTu3qqP4bFOvo0/6tTflQ5v8GGpTtsrcOVex79WW2vFmX+xD5NN5iT6W9e1bmafYhspEGyrr7ay+sV/sT+Ye5Y58nOSjNRfkb/PcteY6Q3l4gZclcJyI0zrghgKOQsad13XO17SXMNGfX0dR53KxjMu5jo7Vhu9qWrB12emyJzsWRL5eikTbVOzebF/14+vol877WK8tNNVO17HLau/XLuvjsp7O65zKyU+1YRGqfXzkxXFYGKpu3Mo8yKaEdfwJZLVlX3S9q4zOqZzb0bFeO36L3NJOn72umKMt933JWmxTtsvrbq/cl+VijnXN7dmmBL3Ol3bUfl/flGU5foEl8Ugu6ubirjyRv81z15XP7OfgBV6WwHgiTuuA6wpYgqLcfDexFC3qVImPuOnYd0plq+x4CZ0oysrjKH5KcWlbXW3qWhRRsWz0o89mrG//Y1x6baGl/VAM9qPVTsyv/IxCWzFYkDq2mDu36WveW5DHWGSrLw+lGJcdxRtzGH2J/XVWm7YVcxfjjLZUptzMoezEXLndrn1ZLuYpvnbdGGvpg/MffXY99hfPOeo/8nJxXmpzQv42z11tjjOVgxd4WQLPiTitA24o4FKgqAPLc6VQ8bEFZhRnBkBl9Nd3rDZ8l7FL0LiNWN8CuLStMuW5PoHpsrI15L/KRTHmemVMm9iJ+S1jj+JWbZbtlnnR9TKOeNyXB5WJd71lp4w3+hJ9PqtN24q5inHGvu+KR/X9V7br8+W+LBftxteu51hjjLoWj6PPrsf+pG+ci6H5xWXYX5w354T89efGOWJ/kiN4OckFXMw3F4k4rUvyUMClQBG45TmJEosmizidU9kuEePzruNj1/Gx71x2CZqz2oy2bS/a7xOYZVnZ8R1MXYt/sifh5XMqG9vVa7fZYifmt4y99FvHypP9iG3ar7KO7OuREteJuXSdPqEd41M95yb6LBs1bbquysf8yJbfZOm14tPevsW9YnCO4/nydelfzFNsT/Vim7GcrsWYFaNi0L5sj+OTsTI0v5Cnkzz15YL8nZ2jvtwd4nl4gZclcJ+I0zrgWgMuRYuEhsSQNgk4fcjN4sfCe33x6B+LK9lQWW0SS9GGzukDkxYxXYImli/blDjSX4RtyGe1p82+dYmrF0q88G8UqH6ttsp2N7VT+qpcarN/MXc6H2Mt23QO5Kc32dHdavsec6ky7jvZ0uY3PGW76mfZUR+XPqvdoTbVv/pwqxlwG6onWxbapR35Y/90Ta8dv/1zXLruv9K/Mk/RV7VhGyW/MWa3r/LuG7fH/iT3yg/5OMlHay7I3+a5a811hvLwAi9L4DgRp3XAJQq4d0G3YLKAWgKI+DjMb9cbMHI2nLN95OcQ5pdd5pX8zY/pXfb3trbhBV62ZWiK+ok4rQMuUcC9QlvgSGRz57GOiSkG2rZtxLvZ29qi/u64OJT5ZVcMkb/dsbmrPtunXXiBl33yV9t2Ik7rgEsU8KDQrgWAcnXckCfyVMMA88t2nJC/7fJXw2imMvACL0vgORGndcAlChihHZ5LXsJgw8e6MbrkPDG/bNfH5G+7/C157GziO7zAyybcTF0nEad1wCUKGKGN0IaBmTHA/FI3D/ctdORvu/z15TXreXiBlyWwnYjTOuASBTwosnhGu46HJQzSQ/dxSc+nH8r8sismyR/zVgtb8AIvLbzsq2wiTuuA2yTg8qvf9tVZte3qW0fKH2BRXX+13VTfRjL07Sdjiyf3kfrXm+Isvz6vNodzKOf+cjzaz/EDruXXCcbcKQZ9faHKxPMtr1u/ccUs6GsU77nnnlNfkdjS7iZl1Ueb1KPOC/M3+atbx+AFXmBgOWMl0bxWl/TWgFsX+TnA3yd8JDwlwPW9zlP4OSS0x26//K5o21+60N5WpDoPu9z38aY2xxDasqM3ZjVvEMvx2sfFrvLROr/syo+l2iV/devYUvt3bL/hBV7GZmoX9hJxWgfcUMBdgqHrXGtHSCBowW+tt2n5PnEhsfLpT3+68273pm0N1dtWaJ+VN/WNfghGPvTFrDLxB2GG/J3imt7kyKeatsYSqWpLbe7qDZZs+8d8yrhqY1BfDwlpXRO/si+u9Fq2y/ZKX/q4KOsNHQ+1V9Ybml/KshxfPGeTv4tzAif9OYGX/tzAzXxyk4jTuqQOBVwu0lrc42axrEXeW/yVP4Edr+m/+SVu4iabsmNbqqN2LQZ9R04CUpvFRbQb25Qd/YKf2tIvD8qWykb7bsNiqGy/y0bXOdn2rxvKN5XpEtOO59y5c2u/ugRU9LErz7Idt2jDfsTHKFTeuYoTjH2xKHNd2Xa+Yn6UI2+2GY9tu8WO/HKebCv2oa57i+eHRGrMT4xD/sV86trdd99t8+u96sp/86A69s95lk9iUP7Yp742bavMneyWMbgdOySbzqnzYB98Xnu3ofrOfVkuxi37sq0/2bWtsky00RWf/Ff83iJzthn3KhePeV03LztP5K8tX87boe7hBV6WwH4iTuuAGwo4LubuvK5zvqa9F3O/jou6y8UyLqdzvq42otDWwt5lx+WjPb0uhZbqRgFRtlnG1GWj65zb114CRKJDe7UVBYjaV32LqtIX1Y9lJNDkU7Sv17KhP5+36Ilt+ZrKxc05KXNrn1UvXtNr1bGvXcexj2rtyGfVkz3lo4xVfse+1rHjc7wxrljWsctnn48x+br2sYxjP0toW2BHO34d7ZW5st8qE+NXXfmp83rdx4fKlG2rjeiv/Sj3ZbmY3zI3OlY72pd2YnyKIfZ3WTYeD80vsRyvu+fryDqvycBQBq6++ur1ZcZS91giL/PJi0BN0h91Se0KWItquXmhLxduJUtCIG467hMNKq/FXn9OdHkcBUApTFynq03b1jWX017HFjM6tm/RZwvRPhtRoNi2/FQ9b7YRBWT03+1GX2xLPjon2msr44h5si33i+143+WvrsXcdvWzY4jlVK8UVzGuFjuy5f6IedJ5xxTzE9uNbap8/HPO3BcW5315UBsxv4o3CtfSl9g/brevzTJ3Kq+y+osx6LX6r9xUzm1ob19iX5f+xvLxdVlOth13fO067hsd63rcnNPYJ67Xt1f9vmucP81wVz7I39k56srboZ6DF3hZAvuJOK0DbijgcpFWB5bnysXaxxYHUTQZAJXRX9+x2ui7W6o6biPWj+Ih2nb5eK6MoSyjsrF8eV3HUTB1HduG4rdAGcpJl5BTXW32xTbVnv8s1iyQfV5lnROf0z7mNvoWy7hcFJ6luIrxt9iRbYs55UNtyCed78pPbDe2Gf0t24/HfXlQmZifkonSF/vsdmMbOhePY45d3n0XY4ivXS7udV3iuuxblSn9jfXi67JczEd87TqOM8aja/FYfnFH+2QMOne72A/Nz7toD5vT9Ouu8gwvy+6/XXExN7uJOK0DbijgcpFWZ5XntDBrwdY1ixMLmK6FXOV03nV87Do+9t27rkX9rDajbduL9mN9Xdef4rK4L/2zjWg3ltd1CZEoiOy3BImuqYzz42Od81+XT7Zr37v8cn3bto/au57LaB/9tpDr8qfsZ8ejvexo70dAWuyorvxSm/I5Cm1dK/3Wsd+oxDZV1n9lHdl3nRivy2uv9mN+ynI6Vn86N/bZNs5qM9aN+SljkN3oh+2rXY8Bn4v70v94Lb4u+zH63RWz2tT5WE725KNzqhj0WvvYVtfrofmlqzznTrhWLsjf6XzAx3A+4GU4P/Azj/wk4rQuoa0Blwu3RYTsSFzog4gWDhZ/uqbNC7VsqKw2CYZoQ+f0gUkv5F2LeixftimBoL84oKLPqmuBGMvYV/nTZaPvnPzVJsFYikblIYolt/FCjRf+9XWVVRtlGcUn/+Vrmbfof/latspNscmG31CUNlU+9pHikT8qV/ZDmcfo25Ad2VKs8kWv7afz4Ov2PZ4v21RZ/ZU5E4PRd7chm86nbMm2Nl0v21UeZMN+Rp/PalO5EMOq481tlDGUvts/x9a3Ny+67tzb11hH18pcqK7LqE7cbKP0q8ypYzMvtlfuZbs8x3Hd3Kw8kb/6XMEVvMDAMsZLonmtLuGJAu5d0C0aLCKmGowSV1HUTNUu7dSxv9Q8Saz7jejcYziE+WWXfUD+co/lsdmBF3gZm6ld2EvEaR1wiQLuFdoCRSL7rLtvYwKlO4m6Y6r9mHaxVcd15jzFu9lzj/NQ5pdd9cO+8lf+T8e+bhj4ZoX2tTdK7Lvm33/91389qJsd++JlV/xjN+d6l4jTug5KFPAsBK3vniuvflyAyaKORfKUL0/ML9v16b7yp7nL81f5uNO241Q3H+Lja3324s0R1an5ganS1xhHXzuZzu+Ll0w5JJbt5qya/CXitC5ZiQKehdCugYwydWySp+Xniflluz4cyp9Epe406839tmNFgjTeMZZdH/vmgY+3baumvtrUZwv8P4K1saq8P5Mwlt8S+Pajxvd9lhniZZ9+0fZ280C2/CXitK5jEwW89WKTDWbiqRsD5Gl3eWJ+2S63Q/nrE58SxN784XSVFefxmkW6HqnzptdXXHHFKZGrOv5QstuUXW0W3xLq3nwnXO3F8350Twl7aSIAACAASURBVOdcRvb8oeRoT3bj4yoqp/raS/R2PZYX29L1f/iHfziuI1/62irz4pypfvQt+qM6c/xTDufoFz7Nk5d99UsiTus6NlHATDAznfz3NZhpt24O2GWemF+264Ou/EWxrOva/G01uubX6leJQwvceE2i09++JOEaH+XQsWx4k9hUedlz2xbKOqfXLhNtxfNmLN5ltvCVTdu2Hfnt87qmshbaOu9ytuu92rRv8sV3t4faUjnZ0152ypw5f25jznv12Zz9w7ft5oMs+UvEaV2HJgqYCeZokcgyEIkjR18yv2zXj0P5k3iUKJR49XjRsYWmzkXhGa9FsarXumYb5bHP214sG4Wzr0uYlnfFbaMUzNGWr507d+7UHXXVjaLZtsp9ly+2X8bktpzDvpzF/JXtzfF4iJc5+otP280PS81fIk7rOjBRwMcLxVLhw+86ZsnTcvLE/LJdXw3lzyLRQlv7+FxzFJ5+LXva4l3aUkyWxx5vtiHR6nPyQXeDvVnYRiHrstqrrtsu2/E1CW2VkQ3XLYWyz8d92aZ8URsq09dW+YagjFE2YryxvTm+Vj/M0S982m4eyJa/RJzWdWyigJlgjhaUbAOSeJbdp8wv2/VfS/66RKIfI9G1KMI9rrrO94nLUsjKRtc5n/ejKW5L+yh49drCPPpe2ozXysc8om0LdZUv4+prK9qWLfnjx1JKP2Jbc33dwstcY8Cv7eaMJeQvEad1nZUoYEQmQhsGZsYA80vdPNy3OLbmT4LSW/lrnhKp8dlr36mVuNSmfSlQo199j2/IjjcLe9WL5y1e1Ybbtch1XfmueqXAje0OCe0opksbfW2pvZizW2+99TgPsY59i/mY42vlco5+4dN280C2/CXitK5jEwXMBDMzkZVtciCeujkl5on5pT1nY+UvCs9ocwmv/ZV6Q8K/jCOK+PLaoRwz3rYbb4fCyb7jTMRpHXCJAkZoI7RhYGYMML/UzcN9C9+m+dMdXd1F9t3jPvtzPS+/Jbb1rHbN3WTF2/Woylzj25Vfm/KyK3+wu934z5q/RJzWdXCigBFZMxNZWScJ4qqbW5Qn5pf6XHVx1ZK/8tGQGoHa1ebSzilObYcS71D/tPAyZIdr241b8jecv0ScDgdqEBIFjNBGaMPAzBhgfqmbhz0fl3vyt13+ynxmP4YXeFkC44k4rQMuUcCIrJmJrCUMeHysmyc2zRPzy3b5JX/b5W9TbpdaD17gZQnsJuK0DrhEASO0EdowMDMGmF/q5uG+xZH8bZe/vrxmPQ8v8LIEthNxWgdcooARWTMTWUsY8PhYN09smifml+3yS/62y9+m3C61HrzAyxLYTcRpHXCJAkZoI7RhYGYMML/UzcN9iyP52y5/fXnNeh5e4GUJbCfitA44BcxGBsgAGdhVBpYw8c/VR/XJXH3Dr7o1dso8wcv8+mTK/l9KW4k4BbilQIefsAoDMNDFQKIFiTcME/xvE7wwj3TNI3M7l4hTgJsbXPgDkzAAAy0MJFqQENoIbRiYgIGW+WVfZRPNayxo+4KIdmEPBmBgDAYSLUiIrAlEFrww74wx7+zaRiJOAW7XsGAfxmAABnbJQKIFCaGN0IaBCRjY5Xw0lu1E8xoL4FhQYAeWYAAG9sFAogUJkTWByIIX5ql9zFOtbSbiFOBaO5/yMAMDMDAnBhItSAhthDYMTMDAnOavPl8SzWssmH2dzHnYgAEYWAIDiRYkRNYEIgtemNeY1yZlYNLGmEQnmESXMIDwkXEHA+MxgHAaL5eHwCW8wMsSOE/EKcAtATh8hFMYgIE+BhItSNyMmeBmDLwwl/TNJXM6n4hTgJsTWPgCjzAAA60MJFqQENoIbRiYgIHWOWYf5RPNayxq+wCINuEOBmBgLAYSLUiIrAlEFrww94w19+zSTiJOAW6XoGAbvmAABnbNQKIFCaGN0IaBCRjY9Zw0hv1E8xqL4BhAYAOOYAAG9sVAogUJkTWByIIX5qp9zVUt7SbiFOBaOp6y8AIDMDA3BhItSAhthDYMTMDA3OawLn8SzWssml0dzDm4gAEYWAoDiRYkRNYEIgtemNuWMLcl4hTglgAcPsIpDMBAHwOJFiSENkIbBiZgoG8umdP5RPMai9ecwMIXeIQBGGhlINGChMiaQGTBC3NM6xyzj/KJOAW4fQBEm3AHAzAwFgOJFiSENkIbBiZgYKy5Z5d2Es1rLHa7BAXb8AUDMLBrBhItSIisCUQWvDAn7XpOGsN+Ik4BbgwgsAFHMAAD+2JACxLb8jLws5/9bG9O74tV2mWerGVAg6O27MzL0ekz76AsoBHHBHeqYJn5DAaWwcDPf/7z1eOPP756+umnmRuZG2GggwGEdkdSmOCXMcHTT/QTDMAADOyPge9973trgf1bv/Vbq1/+8perj3zkIwgtNAUMFAwgtIuEMGnvb9Im9+QeBmAABpbBwJ/+6Z+uxfWb3/zmtbD6p3/6p5XubtN/y+g/+mm6fkJoI7SZGGEABmAABmCgiQE9KvL1r3/9VJ1nn312ddttt506h6CbTtCR63nmGqHN5MqkCAMwAAMwAAPVDNx1112rX/ziF6v/9//+36k6enREYhvBN0/BR7/sp18Q2kyuTIowAAMwAAMwUMXAr/7qr66ef/751Xve857O8k899dTq3nvv7byG0NuP0CPv+807QpvJlQkRBmAABmAABqoYePLJJ1cXLlzoLfs3f/M3q+eee673OqJvv6KP/E+ff4Q2kysTIgzAAAzAAAycycCnP/3p9QcgL7nkksGyjzzyyOrhhx8eLIPgm17wkfP95ByhzeTKZAgDMAADMAADZzKg569vuummM8u97nWvWwvyl73sZWeWRfztR/yR9+nyjtBmcmUihAEYgAEYgIFBBn7yk5+sHnvsscEyUbz9x3/8x+p//ud/qsvHuryeTgSS693nGqHN5MpECAMwAAMwAAODDGzyM+uq89u//duDdhF6uxd65Hi/OUZoM7kyCcIADMAADMDAxgwkEhIb5wAxu18xO+f8JxofdPKcQcM3+IQBGICBnAwkEhIIbd5wjs5AovGRcwJjYaJfYQAGYAAG5sxAIiExusiac7/h2zTzSqLxMU3CAJM8wwAMwAAMwMAJA4mEBEKbO9qjM5BofJwMeiZAcgEDMAADMAAD0zCQSEiMLrJgcBoG55znROODzpwzaPgGnzAAAzCQk4FEQgKhzR3t0RlIND5yTmAsTPQrDMAADMDAnBlIJCRGF1lz7jd8m2ZeSTQ+pkkYYJJnGIABGIABGDhhIJGQQGhzR3t0BhKNj5NBzwRILmAABmAABmBgGgYSCYnRRRYMTsPgnPOcaHzQmXMGDd/gEwZgAAZyMpBISCC0uaM9OgOJxkfOCYyFiX6FARiAARiYMwOJhMToImvO/YZv08wricbHNAkDTPIMAzAAAzAAAycMJBISCG3uaI/OQKLxcTLomQDJBQzAAAzAAAxMw0AiITG6yILBaRicc54TjQ86c86g4Rt8wgAMwEBOBhIJCYQ2d7RHZyDR+Mg5gbEw0a8wAAMwAANzZiCRkBhdZM253/Btmnkl0fiYJmGASZ5hAAZgAAZg4ISBREICoc0d7dEZSDQ+TgY9EyC5gAEYgAEYgIFpGEgkJEYXWTA4DYNzznOi8UFnzhk0fINPGIABGMjJQCIhgdDmjvboDCQaHzknMBYm+hUGYAAGYGDODCQSEqOLrDn3G75NM68kGh/TJAwwyTMMwAAMwAAMnDCQSEggtLmjPToDicbHyaBnAiQXMAADMAADMDANA4mExOgiCwanYXDOeU40PujMOYOGb/AJAzAAAzkZSCQkENrc0R6dgUTjI+cExsJEv8IADMAADMyZgURCYnSRNed+w7dp5pVE42OahAEmeYYBGIABGICBEwYSCQmENne0R2cg0fg4GfRMgOQCBmAABmAABqZhIJGQGF1kweA0DM45z4nGB505Z9DwDT5hAAZgICcDiYQEQps72qMzkGh85JzAWJjoVxiAARiAgTkzkEhIjC6y5txv+DbNvJJofEyTMMAkzzAAAzAAAzBwwkAiIYHQ5o726AwkGh8ng54JkFzAAAzAAAzAwDQMJBISo4ssGJyGwTnnOdH4oDPnDBq+wScMwAAM5GQgkZBAaHNHe3QGEo2PnBMYCxP9CgMwAAMwMGcGEgmJ0UXWnPsN36aZVxKNj2kSBpjkGQZgAAZgAAZOGEgkJBDa3NEenYFE4+Nk0DMBkgsYgAEYgAEYmIaBREJidJEFg9MwOOc8JxofdOacQcM3+IQBGICBnAwkEhIIbe5oj85AovGRcwJjYaJfYQAGYAAG5sxAIiExusiac7/h2zTzSqLxMU3CAJM8wwAMwAAMwMAJA4mEBEKbO9qjM5BofJwMeiZAcgEDMAADMAAD0zCQSEiMLrJgcBoG55znROODzpwzaPgGnzAAAzCQk4FEQgKhzR3t0RlIND5yTmAsTPQrDMAADMDAnBlIJCRGF1lz7jd8m2ZeSTQ+pkkYYJJnGIABGIABGDhhIJGQQGhzR3t0BhKNj5NBzwRILmAABmAABmBgGgYSCYnRRRYMTsPgnPOcaHzQmXMGDd/gEwZgAAZyMpBISCC0uaM9OgOJxkfOCYyFiX6FARiAARiYMwOJhMToImvO/YZv08wricbHNAkDTPIMAzAAAzAAAycMJBISCG3uaI/OQKLxcTLomQDJBQzAAAzAAAxMw0AiITG6yILBaRicc54TjQ86c86g4Rt8wgAMwEBOBhIJCYQ2d7RHZyDR+Mg5gbEw0a8wAAMwAANzZiCRkBhdZM253/Btmnkl0fiYJmGASZ5hAAZgAAZg4ISBREICoc0d7dEZSDQ+TgY9EyC5gAEYgIG8DNxxxx1au9hmkoEnnnhiJp7gRqYMaJxnmMfVJxniOIoh76JCbPQtDMAADJwwkGjhyrIAEwcaZHQGsozzLHEcrUEnkzCvyQUMwAAM5GUg0cI1ujiB+7zcH1rfZhnnWeI44o/BRQ5gAAZg4BAYSLRwIbRZu2Ggh4Es4zxLHEdrCwssOYABGICBQ2Ag0cKFyGLthoEeBrKM8yxxHK0tLLDkAAZgAAYOgYFECxcii7UbBnoYyDLOs8RxtLawwJIDGIABGDgEBhItXIgs1m4Y6GEgyzjPEsfR2sICSw5gAAZg4BAYSLRwIbJYu2Ggh4Es4zxLHEdrCwssOYABGICBQ2Ag0cKFyGLthoEeBrKM8yxxHK0tLLDkAAZgAAYOgYFECxcii7UbBnoYyDLOs8RxtLawwJIDGIABGDgEBhItXIgs1m4Y6GEgyzjPEsfR2sICSw5gAAZg4BAYSLRwIbJYu2Ggh4Es4zxLHEdrCwssOYABGICBQ2Ag0cKFyGLthoEeBrKM8yxxHK0tLLDkAAZgAAYOgYFECxcii7UbBnoYyDLOs8RxtLawwJIDGIABGDgEBhItXIgs1m4Y6GEgyzjPEsfR2sICSw5gAAZg4BAYSLRwIbJYu2Ggh4Es4zxLHEdrCwssOYABGICBQ2Ag0cKFyGLthoEeBrKM8yxxHK0tLLDkAAZgAAYOgYFECxcii7UbBnoYyDLOs8RxtLawwJIDGIABGDgEBhItXIgs1m4Y6GEgyzjPEsfR2sICSw5gAAZg4BAYSLRwIbJYu2Ggh4Es4zxLHEdrCwssOYABGICBQ2Ag0cKFyGLthoEeBrKM8yxxHK0tLLDkAAZgAAYOgYFECxcii7UbBnoYyDLOs8RxtLawwJIDGIABGDgEBhItXIgs1m4Y6GEgyzjPEsfR2sICSw5gAAZg4BAYSLRwIbJYu2Ggh4Es4zxLHEdrCwssOYABGICBQ2Ag0cKFyGLthoEeBrKM8yxxHK0tLLDkAAZgAAYOgYFECxcii7UbBnoYyDLOs8RxtLawwJIDGIABGDgEBhItXIgs1m4Y6GEgyzjPEsfR2sICSw5gAAZg4BAYSLRwIbJYu2Ggh4Es4zxLHEdrCwssOYABGICBQ2Ag0cKFyGLthoEeBrKM8yxxHK0tLLDkAAZgAAYOgYFECxcii7UbBnoYyDLOs8RxtLawwJIDGICBNgY0AbKRATKwfQYyzD3bZwELZGCZGagcv20LbKVR3mnyBgYGEjOgKZG5gLkTBrZjIMs4yhIHPG/H86Hlr4F7EntocBAvzG/LQMMEgyBP/IZrW44OvX6WcZQljkPnkfjbtEED922G6QjyBQMw0DDBILQR2jDQw0CWcZQlDtY21rYWBhq4J7EtiaUsvMDASzS/IJ56xBN8MEfUMpBlHGWJo7bfKMcYFwMN3JMwBg0MwEAbAw0TDIIcQQ4DPQxkGUdZ4mAdaFsHDj1fDdyT2EOHhfgZA60MNEwwiKwekdWac8rnG6dZxlGWOBhj+cbYLvu0gXsSu8uOwDZ8ZWSgYYJBaCO0YaCHgSzjKEscGedqYtqdBmngfndO0MHkFgZyMtAwwSCyOkTW7bffrhQeb08++eTq8ssvHyVX11xzzerChQurSy+9dBR7jOHdjWEBkCG/WeKYsi92OQcoDuaB3Y1bc9LA/e6dsVPsyTUM5GCgYYJJISTG5laL7L333nucGx0/9NBDo4hjFtjljLEs4yhLHGOP8z57Gu9jvrnuaod5YPfzQAP3u3emCwLOkXcYWC4DDRPMsZikv0/6uxTaWhQfffTRUe5qj7HA3nDDDSv5SJ+d9NkucpFlHGWJYxd9XNrU+JTI1r68NubxGPPAmP5ktNXA/W4nkozJJSaYOXQGGiaYnS4mS+2HUmjr2He09fquu+5aHz/zzDPrBVmPgei6N5dV/OU1PTbiR0f0OIrKxsdSdCc9imgde1PZ8+fP+3C9l+hWO7Hcru/GLbVfW/1WglvrzLF8ljimyK3GUxy/ZZvleI5lNW41PjX+tGl+kL14bAFvoa25wFsc97qu+t7itdInjrs1j3JXmZtuA5WVaxuhXMdzmuQY9pbKQMMEw9jvGPta1OJWLqYW2OajSxzrnK7Lll/rWK9t7yyhXdZ1ezqvv3gc29A1t+Ey7NvnsyzjKEscUzDcN+bctsZZHHs69tjT+fgmt+vYZS2k/UZZc4Hq6liv9T9oFuXxmv1gf/Z4buD+bGMknBzBAAxEBhommGOxFusf+uuhxba8Vi6Kyp3vVl1xxRVrwevFNF7TnTHVlSDW3jn3Qu47Z7Guy8gH/em4q1yXXddlXz9XZBlHWeKYgl2Nt743qUNjXeOwnBtky8JavkfbmiPKx9E8rmM5x+xrPmZ/9jhu4P5sYyScHMEADEQGGiaYY4EX6x/663LBjPkoF7yhxRehvexxmWUcZYkjjsNdvZYA1p1l302O7QyNdQttzQ+ug9De7/hv4H6/jhoY9vQDDCyHgYYJ5nhRoH9P+rdFaCtvvgvtHOrYd7Lia12Xbd8xKxduHWuR92Ld54fOu4xtuj0fuw37xP6kf2tzkWUcZYmjtt+2LaexFB8BifZ0LY69OL7LcXmW0PYz3LLvsa86ffOCrkVfeD08phu4HzZEoskPDMBAyUDDBMPEfbTIlfnTghmFa7xeLqa65sc3lHdtUeSW1+KHIVVX9rxpcdeHqXRuyK7utvmDUl585a+3PpEQ4+D1xf1e5kT5LM8t8ThLHFPmPo4n5c/zQTme41gv54azhLbGemzH415xxjGu9uO1KfOw5LaUt0r/z54MKg3VNki5joWXHMPhkhhomGAY74x3GOhhIMs4yhLHkuZgfN2/Zmjgfv/OAgx9AAPLYqBhgkFk9YgsmF8W87voryzjKEscu+hjbOYd5w3c500CgNO3MLAbBhomGIQ2QhsGehjIMo6yxMF6sZv1ImteG7gnsVkhIC7Y3hUDDRMMIqtHZO2qb7C7nHGfZRxliYOxs5yxM4e+auCexM6hw/ABDpfEQMMEg9BGaMNADwNZxlGWOJY0B+Pr/jVDA/f7dxZg6AMYWBYDmmDYyAAZ2DwDV1999bpyhrlv8yxQkwwsMwON43dZC3yGSYkYYG7pDGhqXHoM+M843DcDWcZRljj2zQPtL2tOauB+WYEBIv0FA/tnoGGCQZD3PDYAx/vneN99kGUcZYlj3zzQ/rLmhAbulxUYINJfMLB/BhomGIQ2QhsGehjIMo6yxMHasv+1ZUl90MA9iV1Sx+IrvM6BgYYJBpHVI7Lm0I/4sN/5JMs4yhIH42G/42Fp+W/gnsQurXPxF2b3zUDDBIPQRmjDQA8DWcZRljj2Pa/S/rLW9gbulxUYINJfMLB/BhommJ2LrMsvv3z10EMPrbTfJRuXXnrpuh3F7u2GG26obvP2229f3XvvvdXldxkLtvc/htQH2jL0RWscGjflpvERc6HjcvN4K+tr/Gt8un5Z98knn1zPDxp/ZTtx/uga466rcnpd1r/mmmtWFy5cWJ07d259vfRZx/bbNlzmmWeeWam+/R7ad/k+VH6Ma8qHYit9dBwt/o/hz9xsqB8rfZrHhFPpbG1QlOu5g0Ke4X0MBhommJ2PxbhQjhFbn419LHR9vnA+xzie0zjahqnWOCQ8ozi2wI1vRCVo47H9k+h79NFHe99Yq57Fset43zWG4/xhPyyMXU/7PnFpoa26Lq/6pe8qJ2Eabev1XMVqX7w+L9/1Wn1RCnHnIfu+gfscE1b2DiU+OJ0TAw0TzPHisyv/NdmPeUf7/PnzFy0cQwuw4tKiU97p2lW82M0zF8xpHG3D1VAcfUI0Cm21XYq2PqGtsVbWte9qSyK7T/htK7TVruaH2H5ffKXQ7mpbfsc4Nc+onHLhmFr3Y9nQnezrrrvuojvayn+MLfrf6uvSyw9xX8SWZ9IqAtsYVOzABAwMM1AzwVgAa2HyFhco5VgTtrd4F8qLlyZ7b57Q47FsdLUTFwK9vvXWW9cLsNuwcO6ypTJqq2RA51w/XtP5uFl033XXXesF2Xes7L/q6rXyInveVM929dqbyqhsvO5y7Ic5nXt+1Mdz97HGv6E4PJY15mxLLJdzga5prGps6HUcL66nvcZ73xjts+v60b7Pef7Q3vNC11hzube//e1r312mL744Bw3ZjfX1urzrbT+j733zh3PjuaPMcXnd5RyL2/JefpePjqht95HKnZVz28q4H+K+iHfZE1URzPFA5jz9CgO7Y6BmgvGk7km5XGx0Pi5GOvbCUC44Xcf+7+O+dtyu2igFss55cSn9GuJGdby5vsqrLbfnYwts29N1x6vX0ae4WCme+N+xZey2x353fE+V25pxNJUv27QzFIf4lVjTOHMbkXef017jw+NI+7jF8eQxq+ueM1Q/jrFo16+jfZ/TeJMN7aNdt237sZxi8vzTF5/Hutopx7Tb1j7aiufL19H3s+YPx1PaaD1WPkqhHf2Qva74W9tZankxUun78ierykBrE0K5o8FDTsnBEANdE0wUoVoIuhYXndefF7QoVvsWMvkRr/nYYrSrHdn1QlcuDCovkVtu8mso5nhNi0u88+S4XEbHbr/rXHk9xtclQmQr5so22S97nHaNoyX2aVcc4rXc/Oayi3HFHcdqOUb68qI6FsN9dl032ve5OPa65qWucjonW/rrEpryQ9dcd8huV33Xi/voe5mbGEN8Hetv8rpLaKtt/dlerf8un2nfxX1PfMueqHqCOoaA6/QvDIzPQM0E0zXhe5LuWnhi+XLyjtfUnzpuEdpa+MxBrOtzm+wdi+rG113HPufFtywf4+sSC6oXY9jEX+qMPw62zWnNONq2jSnqD8VRjmX508V4OS41RjxehmKIY0dtScxr31WnHHcqo7K+O901L9lObEfn7K8eS+u6Y1/6rmO1b3ve18YZ65dxRN/ia7fhva513WTom1v6hHaMTXXjsds6hP0Q90X885t8CgcvApPr9BkM7JeBmgmma8KPC0S5wOjYd6bKxbm0peMotLV4qL648GLpYy0C5UKic9ssDm7DdtWW25MP5bHPuc3yeoyvFAu6pvjcFuzvl/0x818zjsZsb1e2huIox7J8EMse6zo24x4fOqcxEo/7fC9tqY7Gi2yWdcqxpesq73bKcR3rxzHq82pbW4xF13TeNl1Wbcf/BXO5+EiMy3btZc9zzND80eVnl72ac11CW3H4jYlsRL9qbGYqM8R9EWeeSasI7KJBxnX6GgbGYaBmguma8MsFQpO0t7g4lotzaUvHUWjLjj586E3H7mu91sLnY+29oLq8FzvZjaLddcryqudFT2W8iOq82irjVBmds1/l9TI+L+CyJ3+0kJcx2Df24zC9jzyqf/fR7thttsYR+VZdbXE8yT8dl5vqlXXjvOG4NM7i5nGn62X9eK1rnNt+OUZly+VrhLbKe36xb5537LfnEfnoc97LT+forPnD8Zd+2VbtXvGVz2irbuybbduo9WWO5dSPlX4td5KqDLA2EZQ7GkDklBzUMNAwwcDUCONKC2fX4lvTV5SZ75jOMo6yxMFYme9YmWPfNHBPYufYgfgEl3NmoGGCQWhvKbR1l0t31bSfMxP41j5nZRlHXXFcffXVOs12gBlQ3x/CfKCurYyzfXKoNFzrAOW2XIjpDxiemoGGCYbx3Ti+/d/RcX32fxlP3c+0t9u5Jcs4yhIHvO+W92z5beCexGbrfOKB6V0z0DDBILQbhfau+w7785kfsoyjLHEwNuYzNpbQFw3ck9gldCg+wumcGGiYYBDaCG0Y6GEgyzjKEsec5lh8mf+a38D9/IMBOPoIBubFgCYYNjJABjbPgJ9hzjC3KQsZ4iCGea0zc++PBu5J7Nw7E/9gdG4MNEwwLMA9dzPn1qf4M/08k2UczSUOfWA4fsfzENPxK+rkv7/Gb6jOvq61xLWpj/HrA4dsxK8oVA5r6w3ZXOq1Bu6nn1yWmlT8hhUYeIGBhgkGoY3QhoEeBrKMoyXGYZHoOV3Hh/yd0LWCWXnSn/NWW8/lM+0buEc8Zep4YoHnKRhomGCOJ+Qp/KIN+F8SA1nG0RLjKIX2FHeNRPY7fgAAGiFJREFU58xmFMzKxfnz5zvnbpWL3+kf620an+xF8b6pnanrNXDPxDx159AezC2dgYYJpnOyXnr8+M8YHoOBLOOoJg7/sqIEnDeJNOdRQku/7qq7yv7FxPKrLqMYkxhUOW8Sa6VYLsvE+npdtu872jW+uKz8V3nFpcdPtMkv+ROP5Ytj1bW46djXSp9b41JMyqNz41zKfnzsQ+3H+PXa+dG+fJSm7Atfj/XKMjFHfW2rrbjFXDgnc93L70rfmDArE1WbUMr1/Dcpec4z1hommIMaD3/0R3+0uv/++1ff+973Vn/4h3+4+spXvrL6yU9+snrVq151UHlgrNeN9SzjqCYOCy2LOYsyH2sfRaEYkoiz8HJ5HcuWnsWO4lXldexntMsybt/2SoEXRWGfL/bVvlmo6ryFp651Hbts9NE+q67Olz7rusvUxqV2yljctu1pr3zGn1dXmRhfLBtfq5xzqPOxXnztazoX6+t12bbarWm7tLPv4xruX/SxbkLYd0C0Tz/BwHwYaJhgLppkx+hHLUq+YyNffvGLX6y++c1vrv78z/981PbOnTu3+vnPf776t3/7tyq7H/nIR9bl//Zv/3Zd/q//+q9XP/vZz1af//znq+rL/+9+97urX/7yl6vnnntudc8996zjXOIiNEY/Z7ex73E0Vn674pAY8yZ+u0SkyliIqYxfyy8LY9vwXuVUL4pJxxFFbFcZ1dWfypft2UbXtS7f1ZaEqkRjaSvGJXvRl7KsritulYnloj8tccmWY5SN6GdXTtWmfYj1YvvxtX31Obd3Vo6G2la7NW27zbnsxWSlL/NZvCsdrg2MckeDjJySg10w0DDB7IRBLR4S2v/1X/+1+sd//Mf1Xj597WtfG7W9t73tbasHH3xw9fGPf/xMu7/xG7+xFsa6g/0Xf/EX6/KXXHLJ6j//8z87RUFXv9x4441rka0F/Oabb1798z//M0I78Ty273HUxeAm52ri6BJiEnkSamqzFFtd5e3bGIJU7blt2/W+xpcoYMvyMS7ZjP52tWvxGsvZF+1bhbbsuL79vOKKK9bzkK/F/yFQWQtm1+vb21dfd72u/qptu8yfbc99X8P9izEgRObemfgHo3NjYGiCefOb37z68pe/vHrlK195PNlv4/8b3/jG1RNPPHHqjocmcAltTfKy/YY3vGH1v//7v9WCdht/+uq++tWvXv33f//3RR8i+pd/+ZfV//3f/62uvPLKta8f/OAH128ItDCVtrTgaPNi6Dh1vizbemxbtt1an/Ljz0ND42hJ+a6JQ7zrEQmzbKHnY+392rFrfHuM+5z2XaJO58V47SMWaqvLtuz0+RL9i76V5TXGom0d+w589NE+j/3oSBzjak9v3PW/c/Fxm3I+kL8xPvnW9ady0X6sF1+rro71V/ZX2XaZv65253iuhvsX/e5O5hyDwif6CgbmwcDQBFMuJOqz3/u931t99atfXT8OIYH8rW99a/1IhSd2PTKhc3pcQo9NSLBeddVVK91Rfvzxx9XcelNd2fdErUlc9t/61reunnrqqdUPf/jD1Ste8Yr15P7AAw+sJHJVR+30taH6uhutO8hPP/30uh09inLrrbcet2M//+RP/mT19a9//ZSff//3f7/24V3vetf6sZFbbrnl1AKlRen5559ffehDH1qfl8/x2EzfdNNN65y8GOp6Yf7Yxz527L/KDbX/8pe/fJ1jPeqiTTHoQ1HK/Xvf+95TtuPzpG6f/fRjS/2UIe81cUhsSWwOfRjS48w5sRiXfW0e/7qucRU3HZdzj+cJl4v29drzh9vzXtdiWZ0vfbFw1rWyvHyJtnUcy3f57ra7rrXEpXZlw/ZU14+4RNvyR+ddVvUcs/Z9c0RpP9YbytFQ27Gf7I/9n/NeXFX6N/3kUulYbQCUOxro5JQcTMlA1wQjYfztb3979f3vf38tOPWs8Te+8Y2V7nB/6lOfWgto3VHRox56vEKbJnSJXIlXPcv8gQ98YC2uH3744dVjjz22vgujDxRqk72PfvSjq8suu+xYAOvRkc997nNrYa4yXig0+WuTcJf4vvbaa3vb0AcVJYJVVgJfQll+a/L3AhD91BsBPTv9hS98YS3udSf9LW95y3HZcqGwDZ+X4P+rv/qr1Utf+tJT41Z3vBWjNj0Tft11160+/OEPHwtt56mvffW/RL8ec3nTm960fmbdgv71r3/9KdvXX3/9Sh/cnJIZ2rp4jlJfZ8hLTRwW2tpniJkYLub50HJSw/2LOSFZhwYH8cL8tgx0TTASq7oLorvCEni6wyyx/M53vnN9F0t3WN/3vvetF9l3v/vdxwLSj1zIZtx0Z1Z3iSVQtVlEy3eLV5eXSL/zzjuPxaOE9rPPPrt6//vfv27vrDZ0ly365/y4HbVtG/EZ7C996UtrF+Sjy1pQ24ZjLc/7etyrHW0ua5s17etutwS678qvDQVbpe3YLq/3MyeojzLkviYOhPZ+GMvA11xjqOH+Rd/p/Ll2In7B5lwZGJpgJA79nKT9L4Vsl4DU3eR3vOMd6+f5tCi/9rWvXT/2INGpTULR9lxfgtrn4l7n4399WiT3tVH6Z1tup0bo1j46Yttd+1IMt7SvO/Ha9IiO7pqXtsrjrvY5N+2co/7KkPOaOBDa07KVgau5x1DD/Ysx0Plz70z8g9G5MTA0wegOtp6Pfs1rXnMsIuKjI5/97GfX12VD4q98JELPJevxkttuu21d30L7Bz/4wfqxDtm3AK0V2me1Yf/86IgegdE3fridLj/LR0f0xuCnP/3pmR+GlN0f//jH68dHyn4txXBL+xbad9999+ozn/nM+s2Ocuy747atnOl5dD3SU7bP8bRzjfonQ86zxJGhL4hhujHcwP10TgEAuYaBHAw0TDBrIVF+GFJiT49qSPyJCX/IT+e0af/FL35xfU13Z/UjMHo2Wef1iIoFaK3QPqsN+acPTuoRFG3af+ITnzhup8tPf2jTH4bUV/ndd9996+fPh77e7zvf+c76eXA9g12OB4thi2PHWdO+vnlFz6zLLz0+og9CKg7b0nPbjzzyyDo+PVeuNyxl+xxPOz7VGRlyniWODH1BDNON4Qbup3MKAMg1DORgoGGC6RQSvkttAZmFi64frNFX++kbTByjRL3ePPiYfY4xsUk/bjuONmlzF3UUBxsZOKQMXH311etwK8fT4U5ylQliQeRbTWCgYEAzTMv40bds3HHHHSs9FvLJT35y9aMf/aj3rm6L3bmVLX+CXd+mwk+ws8b0cdo6jvrs7Pt8ljj2nUfaX9Zc0cD9sgIDRPoLBvbPQMMEsxbkEtp6/lmPNWjTowt6NEPPTtOf++9P+mA/fdA6jubaT1nimGt+8Ws/4/OsvDdwP88AzgqQ6/QbDOyPgYYJBiFd/G8A3O6P27nlPss4yhLH3PjAn3nPFQ3czzsQQKN/YGB+DDRMMAhthDYM9DCQZRxliYO1Zn5rzZz7pIF7EjvnjsQ3+JwjAw0TDCKrR2TNsV/xadr5Jss4yhLH2PyXn9nQr9zymY1px9jYfRrtNXCfJ+iYAF7TrzCwOwYaJhiENkIbBnoYyDKO9h2HvwZTfmjT14B+85vfHP3bfc6dO7fSL9bqF1hr1peubyHSV25+/vOfr6qvbyf67ne/u/5sy3PPPbe65557jn9Rt6Z9yuxuDVRutVXmeLeOVDpR6yzleiZs8gzHUzLQMMEwZhmzMNDDQJZxtO84LLT1PfL6sSvttX3ta18blb23ve1tqwcffHD18Y9//Ey7+qC3hLHuYA99r/7QvH3jjTeuRfaFCxfWPzKlH7t65plnjn9/YKgu13avCRq4370zdDg5hoFcDDRMMGcuSLCRiw36s74/s4yjoTj0C6Rf/vKXV6985StHmQve+MY3rp544olTYtNC2z9gpR9v0jcbPfTQQ6tLL710lHZbuX71q1+9/qal8+fPn2pfP4yl79a/8sor1+c/+MEPrt8Q6CfqyzbO+gGrsnzLsXPmH7RqqUvZF8b4EPdFjuonhaLiRVBwnVzCwGEw0DDBME/03M1krBzGWBnq5yzjaCgOCbpHH310FYVk+Uux3/rWt9a/YuofsNIjEzqnxyX8C6xXXXXVSneUH3/8cTW33nR3V/YtGi203/rWt66eeuqp1Q9/+MPVK17xipXOP/DAA+tff/Ud4b421F+6G33zzTevf2FVDelRFP3olNuxn/5F2+infyn2Xe961/oxk1tuueXUHChh+/zzz69/4VZtybd4bF5uuumm41+qlQ9606DfIbD/KjfU/stf/vLVV7/61bUPjkG/Fqvcv/e97z1l+8knnzzVP/aB/fAcpbxW5mjYUKWR2sYox6ILAwkYaJhg6O8E/c06sJt1Mss46opDwvjb3/726vvf//5a7OlZ42984xsr3eH+1Kc+tRbQEuB61EOPV2iTgJXI1Q896VnmD3zgA2tx/fDDD68ee+yxlZ6R1gcKtcneRz/60dVll112LID1yMjnPve59Z1klbEglpjVJkEs8X3ttdf2tvGqV71qLYJVVt/9L6Esv6Ogj37qjYAeEfnCF76wFve6k/6Wt7zl2KfyjrHFus9L8Ot3Bl760peemit1x1sxatMz4dddd93qwx/+8LHQdp762teYlejXYy5vetOb1s+sW9C//vWvP2X7+uuvX+mDm4zztnGuvqnMWZvhSqO1jVOORRgGFshAwwRD/y6wf5nnp1kXs4yjrjg+9KEPrXSn9Omnn17fsdUdZonld77znSs9TqG7xO973/vW88O73/3uYwHpRy5kM276EKLuEkugarOIFqsWry4vkX7nnXcei0cJ7WeffXb1/ve/f93eWW2U/nk8uB21bRvxGewvfelLaxfko8taUNuGYy3P+3rcqx1tLmubNe3rbrcEuvIfN9sqbcd2eV03/pXXylzVGaw0Vtso5Vh8YWDBDDRMMPTzgvuZeX+362OWcTQUh8Rh+ehIKWS7BKTuJr/jHe9YP9Kgx05e+9rXrh97kFDUJqFoPl1fgtrn4l7n4+MRFsl9bZT+2ZbbqRG6tY+O2HbXvhTDLe3rTrw2PT6iu+alrfK4q33ODY9/5bcyR8OGKo3UNkY5Fl0YSMBAwwRDfyfob9aB3ayTWcbRUBy6g63no1/zmtcczwXx0ZHPfvaz6+uyIfFXPhKh55L1eMltt922rm+h/YMf/GD9WIfsW4DWCu2z2rB/fnREj8DoGz/cTpef5aMjemPw05/+dH33Po6f8sOQsvvjH/94/fhILKfXpRhuad9C++6771595jOfWb/ZUY7LO9rKmZ5H1yM9ZfscD4975bMyR8OGKo3UNkY5Fl0YSMBAwwRDfyfob9aB3ayTWcZRaxzlhyEl9vQoiYSlWPOH/HROm/Zf/OIX19d0d/b+++9fP+Ot83pExQK0Vmif1Yb8kyDWIyjatP/EJz5x3E6Xn/7Qpj8Meckll6zuu+++M7/e7zvf+c762XE9g12OsyGhXcZQtq9vXtEz6zqvx0f0QUjFYaGt57YfeeSRdXx6rlxvWMr2OR4e90peZY6GDVUaqW2Mciy6MJCAgYYJhv5O0N+sA7tZJ7OMo23j8F1qC9gsvHX9YI2+2k/fYOIYJer15sHH7Hcz1naR1wbulxPULhKFTfofBtoZaJhgWEAQ2jDQw0CWcdQah75l44477lh/Xd0nP/nJ1Y9+9KPeu7pLnp/Ln2DXt6nwE+zt681cGWjgPk/Qc+0M/IKxbAw0TDCIrB6RlY0J4mmf57KMo9Y4JLT1/LMea9CmRxf0aIaenYajdo7I2X5y1sD9fhwEDPIOA8tloGGCYeFEaMNADwNZxlGWOFiTlrsm7aPvGrgnsfvoINqEuyUz0DDBILJ6RNaS+x/fx5m/soyjLHHA9ThcH0oeG7gnsYcCBXHC+lgMNEwwCG2ENgz0MJBlHGWJY6z5ce52Lr300vVPuvsbSKbwV23pZ+TV9hTtTdFGA/eIjyk6hDbgLBMDDRNMmkk1U/8RyzzmoyzjaNdx6Gv7/I0k8fUYHOvHcPRjNnHLJgjLPEn0ll+FqGNtil0/2FNeL21sciybteLeX9kon/Rd4OWPHm3S/th15FulzXlMOJXO1gZFuZ47KOQZ3sdgoGGCYSwyFmGgh4Es42jXcUigWWiPMX9FGxLaEnESdj6vtuIvSfp8ln0peBX7hQsXju82K/5dCO0ugd+X0+ij/ENo90wifQnkPGIPBpbNgBZWNjJABrbPQIa5UFnYZRxTC23Fsss2x86VhKjuQtfY7XpjUQrgMYR2l09qW3fMtZev8lnlSr/1eImEv69pP4bQ7muvbL/2uIH7ZS/4tQmhHP0MAzAAAzAAA+MzUCs4JOC8PfPMM6eElISV/ryprPsqit74Wtd17M2PfEiYyb4329J5taFfSdSm813CU3YlPm2vbEdt2rcYk2z60YjSB513+35OuXxW2seyo81+W6BKKHqzb7IbN9cpz0e/omjt8l/nYowxx+Wd/q5rZdv2KQpoxSRbvuZ8+rxjUpwf+9jHTgntMrfRRte1Mq9lDG67dS8fK+uMP+gqG651kHJHg56ckgMYgAEYgIE5MtAgOI7XMokxizmLI4tBiy0fq5zFVHytc7bRlxeLVO3djm2pjs6Xj47ovNq2mFX5WMc+RNux/T6bal9CX8JP5S0AY5x+Ha/JXhSl8Zp9jXlQO1FM61j1tS996Kof8xpfq6yOnRcdxz9d01+XTZ2T34pfPsR65euynMo7njK3zo3zFm3pmnzVvrQZy236uoH704natEHqkUcYgAEYgAEYODwGugSHhI83iy/t42bBFoWU+YmizcJW1/y6FJuup73sxTvavnve1U4p3GxH/su/K664Yr2Pfuu1ha322hyj6ruufLQ9+9UntC0Y18bCP7Lb5WPMj9qzP2pH1+KxzulY5ZSD6IOu9dXvyrF8sXi13eDucbulTZWtFbtludhvsmtuZFN/MRd9fV/adN1t9oq7sv7hTQqVialNIOVehJ28MpZgAAZg4PAYqBEcpUCKx1FImZ8oniQSdaxrft0lAnW9FKXxuEtkxutuu6adWFav5Z82xRVji+XK9mMMfX6ovq5Fcev2nBO1F4W1zsdjldexynXZ6qsf/XMcsX7ZTjwubap+rdgty0U+ZLdPaJc5jMelTcezzb6G+xftH96ksE1iqQsvMAADMAADMHDCQI3giCJMuZPws2CSkNJdZ4koXZNA0qMOPlZZ1Xc9vy5t6noUZTqWjXhHu7ybG8WYyruN+Byv2rGvLtO1Vzn9ddlU+dK3Mm7Fqb/Stuy1CO2udvzoSJdvylFsN+Y1vpZfOnYuYr9YlNtOaVN1u+IoY9VxKYpjPKX/OjYrsZzsxL4vbXa123quhvsXbZ4MltZGKE/uYAAGYAAGYOCwGagRHBZiKqtNH0i06JVA0mv9eZOgM1dR0MXXpU0LQNX1Zrtqw+2onm1bqLm89rbjMtqr3bhJxJV1ozjX9bjpuLSjduSfr5Xx+A2C2lFZ7e2TYnSOoh8+19e+fXCbOtZrC2Qdy0Y8jrHHGGO78lV96nrxWvTJufV1X3Nc2isPyov6S8fa+xltH6s9b9GGXnuLfa96vhZj0PlN/9ROZd3NG6lsoNYRym3R4fQFHMMADMAADOyDgQbB0bnOdwngfcRxKG1KWFvwThmzRHgU+FO2vYu2GrhnYtpFB2ATrmAABmAABg6BgQbBgdCewQ013zmfUvTuS9zvcvw1cM9EuMuOwDZ8wQAMwAAMZGagQXAgtGcgtDOzOGVsDdwzAU7ZMbQFbzAAAzAAA5kYaBAcnUI7Uy6I5XDGdgP3h5MUBgB9DQMwAAMwAAPjMtAgOBDa3NFOw0AD9+MOOCYw8gkDMAADMAADh8NAg+BII7Lg+3D47uvrBu5JVl8SOQ8bMAADMAADMDDMQIPgQGhzRzsNAw3cDw8gJhjyAwMwAAMwAAMw0MdAg+BII7L6csH5wxknDdwfTlIYAPQ1DMAADMAADIzLQIPgQGhzRzsNAw3cjzvgmMDIJwzAAAzAAAwcDgMNgiONyILvw+G7r68buCdZfUnkPGzAAAzAAAzAwDADDYIDoc0d7TQMNHA/PICYYMgPDMAADMAADMBAHwMNgiONyOrLBecPZ5w0cH84SWEA0NcwAAMwAAMwMC4DDYIDoc0d7TQMNHA/7oBjAiOfMAADMAADMHA4DDQIjjQiC74Ph+++vm7gnmT1JZHzsAEDMAADMAADwww0CA6ENne00zDQwP3wAGKCIT8wAAMwAAMwAAN9DDQIjjQiqy8XnD+ccdLA/eEkhQFAX8MADMAADMDAuAw0CA6ENne00zDQwP24A44JjHzCAAzAAAzAwOEw0CA40ogs+D4cvvv6uoF7ktWXRM7DBgzAAAzAAAwMM9AgOBDa3NFOw0AD98MDiAmG/MAADMAADMAADPQx0CA40oisvlxw/nDGSQP3h5MUBgB9DQMwAAMwAAPjMtAgOBDa3NFOw0AD9+MOOCYw8gkDMAADMAADh8NAg+BII7Lg+3D47uvrBu5JVl8SOQ8bMAADMAADMDDMQIPgQGhzRzsNAw3cDw8gJhjyAwMwAAMwAAMw0MeABAcbGTjEDPSNieI8k0eRkDTvtogLtmEABmAABmAABmBgrwzstXFELf+NBAMwAAMwAAMwAAMwkJUBhDbv9GAABmAABmAABmAABmBgBwyQ1B0kNeu7MuLijgMMwAAMwAAMwAAM1DOA0EZowwAMwAAMwAAMwAAMwMAOGCCpO0gq7/Tq3+mRK3IFAzAAAzAAAzCQlQGENkIbBmAABmAABmAABmAABnbAAEndQVKzvisjLu44wAAMwAAMwAAMwEA9AwhthDYMwAAMwAAMwAAMwAAM7IABkrqDpPJOr/6dHrkiVzAAAzAAAzAAA1kZQGgjtGEABmAABmAABmAABmBgbAb+P+IW5VwkZ78aAAAAAElFTkSuQmCC;" vertex="1" parent="1">
          <mxGeometry x="80" y="1110" width="730" height="335" as="geometry" />
        </mxCell>
      </root>
    </mxGraphModel>
  </diagram>
</mxfile>
